<?xml version="1.0" encoding="utf-8" standalone="no"?>
<!DOCTYPE svg PUBLIC "-//W3C//DTD SVG 1.1//EN"
  "http://www.w3.org/Graphics/SVG/1.1/DTD/svg11.dtd">
<!-- Created with matplotlib (http://matplotlib.org/) -->
<svg height="345pt" version="1.1" viewBox="0 0 460 345" width="460pt" xmlns="http://www.w3.org/2000/svg" xmlns:xlink="http://www.w3.org/1999/xlink">
 <defs>
  <style type="text/css">
*{stroke-linecap:butt;stroke-linejoin:round;}
  </style>
 </defs>
 <g id="figure_1">
  <g id="patch_1">
   <path d="M 0 345.6 
L 460.8 345.6 
L 460.8 0 
L 0 0 
z
" style="fill:#ffffff;"/>
  </g>
  <g id="axes_1">
   <g id="patch_2">
    <path d="M 57.6 307.584 
L 414.72 307.584 
L 414.72 41.472 
L 57.6 41.472 
z
" style="fill:#ffffff;"/>
   </g>
   <g id="PathCollection_1">
    <defs>
     <path d="M 0 2.236068 
C 0.593012 2.236068 1.161816 2.000462 1.581139 1.581139 
C 2.000462 1.161816 2.236068 0.593012 2.236068 0 
C 2.236068 -0.593012 2.000462 -1.161816 1.581139 -1.581139 
C 1.161816 -2.000462 0.593012 -2.236068 0 -2.236068 
C -0.593012 -2.236068 -1.161816 -2.000462 -1.581139 -1.581139 
C -2.000462 -1.161816 -2.236068 -0.593012 -2.236068 0 
C -2.236068 0.593012 -2.000462 1.161816 -1.581139 1.581139 
C -1.161816 2.000462 -0.593012 2.236068 0 2.236068 
z
" id="mc0cef9b472" style="stroke:#1f77b4;"/>
    </defs>
    <g clip-path="url(#p9ae94c01f9)">
     <use style="fill:#1f77b4;stroke:#1f77b4;" x="272.595862" xlink:href="#mc0cef9b472" y="186.224173"/>
     <use style="fill:#1f77b4;stroke:#1f77b4;" x="230.880175" xlink:href="#mc0cef9b472" y="184.748429"/>
     <use style="fill:#1f77b4;stroke:#1f77b4;" x="283.02649" xlink:href="#mc0cef9b472" y="188.437745"/>
     <use style="fill:#1f77b4;stroke:#1f77b4;" x="324.746868" xlink:href="#mc0cef9b472" y="90.299838"/>
     <use style="fill:#1f77b4;stroke:#1f77b4;" x="324.736207" xlink:href="#mc0cef9b472" y="115.481015"/>
     <use style="fill:#1f77b4;stroke:#1f77b4;" x="293.447737" xlink:href="#mc0cef9b472" y="230.395697"/>
     <use style="fill:#1f77b4;stroke:#1f77b4;" x="293.446033" xlink:href="#mc0cef9b472" y="54.365739"/>
     <use style="fill:#1f77b4;stroke:#1f77b4;" x="241.323162" xlink:href="#mc0cef9b472" y="231.077878"/>
     <use style="fill:#1f77b4;stroke:#1f77b4;" x="293.446885" xlink:href="#mc0cef9b472" y="99.404466"/>
     <use style="fill:#1f77b4;stroke:#1f77b4;" x="220.472565" xlink:href="#mc0cef9b472" y="261.182267"/>
     <use style="fill:#1f77b4;stroke:#1f77b4;" x="251.742282" xlink:href="#mc0cef9b472" y="176.660838"/>
     <use style="fill:#1f77b4;stroke:#1f77b4;" x="189.17472" xlink:href="#mc0cef9b472" y="256.100902"/>
     <use style="fill:#1f77b4;stroke:#1f77b4;" x="199.578482" xlink:href="#mc0cef9b472" y="219.355498"/>
     <use style="fill:#1f77b4;stroke:#1f77b4;" x="262.161821" xlink:href="#mc0cef9b472" y="140.555774"/>
     <use style="fill:#1f77b4;stroke:#1f77b4;" x="303.899266" xlink:href="#mc0cef9b472" y="190.640924"/>
     <use style="fill:#1f77b4;stroke:#1f77b4;" x="293.462237" xlink:href="#mc0cef9b472" y="160.458234"/>
     <use style="fill:#1f77b4;stroke:#1f77b4;" x="293.46053" xlink:href="#mc0cef9b472" y="171.505992"/>
     <use style="fill:#1f77b4;stroke:#1f77b4;" x="220.438457" xlink:href="#mc0cef9b472" y="252.442595"/>
     <use style="fill:#1f77b4;stroke:#1f77b4;" x="324.763934" xlink:href="#mc0cef9b472" y="122.891149"/>
     <use style="fill:#1f77b4;stroke:#1f77b4;" x="74.397724" xlink:href="#mc0cef9b472" y="291.442143"/>
     <use style="fill:#1f77b4;stroke:#1f77b4;" x="345.673014" xlink:href="#mc0cef9b472" y="183.276751"/>
     <use style="fill:#1f77b4;stroke:#1f77b4;" x="356.088686" xlink:href="#mc0cef9b472" y="133.172715"/>
     <use style="fill:#1f77b4;stroke:#1f77b4;" x="220.429923" xlink:href="#mc0cef9b472" y="267.215954"/>
     <use style="fill:#1f77b4;stroke:#1f77b4;" x="241.289896" xlink:href="#mc0cef9b472" y="260.672232"/>
     <use style="fill:#1f77b4;stroke:#1f77b4;" x="157.793229" xlink:href="#mc0cef9b472" y="294.690261"/>
     <use style="fill:#1f77b4;stroke:#1f77b4;" x="314.361072" xlink:href="#mc0cef9b472" y="151.49276"/>
     <use style="fill:#1f77b4;stroke:#1f77b4;" x="345.673014" xlink:href="#mc0cef9b472" y="135.998446"/>
     <use style="fill:#1f77b4;stroke:#1f77b4;" x="345.652083" xlink:href="#mc0cef9b472" y="192.129006"/>
     <use style="fill:#1f77b4;stroke:#1f77b4;" x="230.861404" xlink:href="#mc0cef9b472" y="112.407774"/>
     <use style="fill:#1f77b4;stroke:#1f77b4;" x="230.854574" xlink:href="#mc0cef9b472" y="242.267775"/>
     <use style="fill:#1f77b4;stroke:#1f77b4;" x="220.410712" xlink:href="#mc0cef9b472" y="190.652079"/>
     <use style="fill:#1f77b4;stroke:#1f77b4;" x="293.474194" xlink:href="#mc0cef9b472" y="130.133953"/>
     <use style="fill:#1f77b4;stroke:#1f77b4;" x="283.034173" xlink:href="#mc0cef9b472" y="184.011792"/>
     <use style="fill:#1f77b4;stroke:#1f77b4;" x="293.47163" xlink:href="#mc0cef9b472" y="108.793159"/>
     <use style="fill:#1f77b4;stroke:#1f77b4;" x="189.099621" xlink:href="#mc0cef9b472" y="236.31666"/>
     <use style="fill:#1f77b4;stroke:#1f77b4;" x="293.476758" xlink:href="#mc0cef9b472" y="164.10932"/>
     <use style="fill:#1f77b4;stroke:#1f77b4;" x="314.354235" xlink:href="#mc0cef9b472" y="201.699866"/>
     <use style="fill:#1f77b4;stroke:#1f77b4;" x="324.785283" xlink:href="#mc0cef9b472" y="103.669584"/>
     <use style="fill:#1f77b4;stroke:#1f77b4;" x="272.595862" xlink:href="#mc0cef9b472" y="271.63023"/>
     <use style="fill:#1f77b4;stroke:#1f77b4;" x="199.545619" xlink:href="#mc0cef9b472" y="158.213445"/>
     <use style="fill:#1f77b4;stroke:#1f77b4;" x="262.157123" xlink:href="#mc0cef9b472" y="153.803181"/>
     <use style="fill:#1f77b4;stroke:#1f77b4;" x="241.278364" xlink:href="#mc0cef9b472" y="173.703461"/>
     <use style="fill:#1f77b4;stroke:#1f77b4;" x="262.155414" xlink:href="#mc0cef9b472" y="237.034793"/>
     <use style="fill:#1f77b4;stroke:#1f77b4;" x="230.832361" xlink:href="#mc0cef9b472" y="244.439308"/>
     <use style="fill:#1f77b4;stroke:#1f77b4;" x="241.268107" xlink:href="#mc0cef9b472" y="254.073305"/>
     <use style="fill:#1f77b4;stroke:#1f77b4;" x="397.922276" xlink:href="#mc0cef9b472" y="68.853716"/>
     <use style="fill:#1f77b4;stroke:#1f77b4;" x="230.840907" xlink:href="#mc0cef9b472" y="181.065243"/>
     <use style="fill:#1f77b4;stroke:#1f77b4;" x="324.798101" xlink:href="#mc0cef9b472" y="186.961111"/>
     <use style="fill:#1f77b4;stroke:#1f77b4;" x="272.595862" xlink:href="#mc0cef9b472" y="133.901062"/>
     <use style="fill:#1f77b4;stroke:#1f77b4;" x="189.08937" xlink:href="#mc0cef9b472" y="215.680798"/>
     <use style="fill:#1f77b4;stroke:#1f77b4;" x="230.828942" xlink:href="#mc0cef9b472" y="205.378735"/>
     <use style="fill:#1f77b4;stroke:#1f77b4;" x="262.152422" xlink:href="#mc0cef9b472" y="200.225424"/>
     <use style="fill:#1f77b4;stroke:#1f77b4;" x="345.702937" xlink:href="#mc0cef9b472" y="186.224173"/>
     <use style="fill:#1f77b4;stroke:#1f77b4;" x="230.832361" xlink:href="#mc0cef9b472" y="145.686437"/>
     <use style="fill:#1f77b4;stroke:#1f77b4;" x="241.268107" xlink:href="#mc0cef9b472" y="206.113435"/>
     <use style="fill:#1f77b4;stroke:#1f77b4;" x="199.488787" xlink:href="#mc0cef9b472" y="268.013495"/>
     <use style="fill:#1f77b4;stroke:#1f77b4;" x="356.170759" xlink:href="#mc0cef9b472" y="114.670181"/>
     <use style="fill:#1f77b4;stroke:#1f77b4;" x="272.595862" xlink:href="#mc0cef9b472" y="196.541407"/>
     <use style="fill:#1f77b4;stroke:#1f77b4;" x="272.595862" xlink:href="#mc0cef9b472" y="171.483179"/>
     <use style="fill:#1f77b4;stroke:#1f77b4;" x="345.699943" xlink:href="#mc0cef9b472" y="115.481731"/>
     <use style="fill:#1f77b4;stroke:#1f77b4;" x="262.155414" xlink:href="#mc0cef9b472" y="220.82485"/>
     <use style="fill:#1f77b4;stroke:#1f77b4;" x="314.359363" xlink:href="#mc0cef9b472" y="186.960708"/>
     <use style="fill:#1f77b4;stroke:#1f77b4;" x="272.595862" xlink:href="#mc0cef9b472" y="197.272309"/>
     <use style="fill:#1f77b4;stroke:#1f77b4;" x="230.839198" xlink:href="#mc0cef9b472" y="203.903875"/>
     <use style="fill:#1f77b4;stroke:#1f77b4;" x="105.541859" xlink:href="#mc0cef9b472" y="264.3285"/>
     <use style="fill:#1f77b4;stroke:#1f77b4;" x="178.5664" xlink:href="#mc0cef9b472" y="250.397561"/>
     <use style="fill:#1f77b4;stroke:#1f77b4;" x="293.499004" xlink:href="#mc0cef9b472" y="185.485897"/>
     <use style="fill:#1f77b4;stroke:#1f77b4;" x="303.948006" xlink:href="#mc0cef9b472" y="131.592277"/>
     <use style="fill:#1f77b4;stroke:#1f77b4;" x="314.393582" xlink:href="#mc0cef9b472" y="158.928722"/>
     <use style="fill:#1f77b4;stroke:#1f77b4;" x="251.700426" xlink:href="#mc0cef9b472" y="240.794603"/>
     <use style="fill:#1f77b4;stroke:#1f77b4;" x="283.044436" xlink:href="#mc0cef9b472" y="141.206675"/>
     <use style="fill:#1f77b4;stroke:#1f77b4;" x="199.45884" xlink:href="#mc0cef9b472" y="228.263692"/>
     <use style="fill:#1f77b4;stroke:#1f77b4;" x="356.205004" xlink:href="#mc0cef9b472" y="233.453731"/>
     <use style="fill:#1f77b4;stroke:#1f77b4;" x="220.357272" xlink:href="#mc0cef9b472" y="185.485732"/>
     <use style="fill:#1f77b4;stroke:#1f77b4;" x="314.395295" xlink:href="#mc0cef9b472" y="155.209957"/>
     <use style="fill:#1f77b4;stroke:#1f77b4;" x="283.044008" xlink:href="#mc0cef9b472" y="206.891507"/>
     <use style="fill:#1f77b4;stroke:#1f77b4;" x="314.386734" xlink:href="#mc0cef9b472" y="214.280668"/>
     <use style="fill:#1f77b4;stroke:#1f77b4;" x="241.257842" xlink:href="#mc0cef9b472" y="164.065764"/>
     <use style="fill:#1f77b4;stroke:#1f77b4;" x="293.490442" xlink:href="#mc0cef9b472" y="181.793841"/>
     <use style="fill:#1f77b4;stroke:#1f77b4;" x="314.381599" xlink:href="#mc0cef9b472" y="175.88736"/>
     <use style="fill:#1f77b4;stroke:#1f77b4;" x="251.706415" xlink:href="#mc0cef9b472" y="223.136118"/>
     <use style="fill:#1f77b4;stroke:#1f77b4;" x="314.378177" xlink:href="#mc0cef9b472" y="190.655855"/>
     <use style="fill:#1f77b4;stroke:#1f77b4;" x="251.708126" xlink:href="#mc0cef9b472" y="265.999306"/>
     <use style="fill:#1f77b4;stroke:#1f77b4;" x="230.816969" xlink:href="#mc0cef9b472" y="188.442582"/>
     <use style="fill:#1f77b4;stroke:#1f77b4;" x="324.828033" xlink:href="#mc0cef9b472" y="93.048179"/>
     <use style="fill:#1f77b4;stroke:#1f77b4;" x="314.373044" xlink:href="#mc0cef9b472" y="182.531443"/>
     <use style="fill:#1f77b4;stroke:#1f77b4;" x="335.251372" xlink:href="#mc0cef9b472" y="127.881988"/>
     <use style="fill:#1f77b4;stroke:#1f77b4;" x="241.2758" xlink:href="#mc0cef9b472" y="210.575432"/>
     <use style="fill:#1f77b4;stroke:#1f77b4;" x="324.802375" xlink:href="#mc0cef9b472" y="158.173942"/>
     <use style="fill:#1f77b4;stroke:#1f77b4;" x="272.595862" xlink:href="#mc0cef9b472" y="192.12721"/>
     <use style="fill:#1f77b4;stroke:#1f77b4;" x="293.474194" xlink:href="#mc0cef9b472" y="189.175931"/>
     <use style="fill:#1f77b4;stroke:#1f77b4;" x="262.15755" xlink:href="#mc0cef9b472" y="212.791069"/>
     <use style="fill:#1f77b4;stroke:#1f77b4;" x="230.840907" xlink:href="#mc0cef9b472" y="189.177129"/>
     <use style="fill:#1f77b4;stroke:#1f77b4;" x="303.917205" xlink:href="#mc0cef9b472" y="185.485905"/>
     <use style="fill:#1f77b4;stroke:#1f77b4;" x="230.839198" xlink:href="#mc0cef9b472" y="196.559833"/>
     <use style="fill:#1f77b4;stroke:#1f77b4;" x="262.154987" xlink:href="#mc0cef9b472" y="178.840511"/>
     <use style="fill:#1f77b4;stroke:#1f77b4;" x="241.271954" xlink:href="#mc0cef9b472" y="217.970701"/>
     <use style="fill:#1f77b4;stroke:#1f77b4;" x="314.366202" xlink:href="#mc0cef9b472" y="167.020219"/>
     <use style="fill:#1f77b4;stroke:#1f77b4;" x="230.832361" xlink:href="#mc0cef9b472" y="218.714598"/>
     <use style="fill:#1f77b4;stroke:#1f77b4;" x="293.481032" xlink:href="#mc0cef9b472" y="186.224173"/>
     <use style="fill:#1f77b4;stroke:#1f77b4;" x="272.595862" xlink:href="#mc0cef9b472" y="195.089157"/>
     <use style="fill:#1f77b4;stroke:#1f77b4;" x="199.503751" xlink:href="#mc0cef9b472" y="194.351399"/>
     <use style="fill:#1f77b4;stroke:#1f77b4;" x="272.595862" xlink:href="#mc0cef9b472" y="178.834961"/>
     <use style="fill:#1f77b4;stroke:#1f77b4;" x="293.485308" xlink:href="#mc0cef9b472" y="147.804173"/>
     <use style="fill:#1f77b4;stroke:#1f77b4;" x="283.03973" xlink:href="#mc0cef9b472" y="212.808597"/>
     <use style="fill:#1f77b4;stroke:#1f77b4;" x="272.595862" xlink:href="#mc0cef9b472" y="175.882008"/>
     <use style="fill:#1f77b4;stroke:#1f77b4;" x="293.482742" xlink:href="#mc0cef9b472" y="178.837962"/>
     <use style="fill:#1f77b4;stroke:#1f77b4;" x="209.940351" xlink:href="#mc0cef9b472" y="182.531443"/>
     <use style="fill:#1f77b4;stroke:#1f77b4;" x="356.157069" xlink:href="#mc0cef9b472" y="178.100578"/>
     <use style="fill:#1f77b4;stroke:#1f77b4;" x="272.595862" xlink:href="#mc0cef9b472" y="210.592239"/>
     <use style="fill:#1f77b4;stroke:#1f77b4;" x="230.828942" xlink:href="#mc0cef9b472" y="182.530805"/>
     <use style="fill:#1f77b4;stroke:#1f77b4;" x="293.482742" xlink:href="#mc0cef9b472" y="169.974178"/>
     <use style="fill:#1f77b4;stroke:#1f77b4;" x="189.055181" xlink:href="#mc0cef9b472" y="202.47054"/>
     <use style="fill:#1f77b4;stroke:#1f77b4;" x="220.365829" xlink:href="#mc0cef9b472" y="188.440082"/>
     <use style="fill:#1f77b4;stroke:#1f77b4;" x="324.836592" xlink:href="#mc0cef9b472" y="202.474663"/>
     <use style="fill:#1f77b4;stroke:#1f77b4;" x="324.825894" xlink:href="#mc0cef9b472" y="180.313584"/>
     <use style="fill:#1f77b4;stroke:#1f77b4;" x="251.708126" xlink:href="#mc0cef9b472" y="137.465773"/>
     <use style="fill:#1f77b4;stroke:#1f77b4;" x="335.264201" xlink:href="#mc0cef9b472" y="169.24399"/>
     <use style="fill:#1f77b4;stroke:#1f77b4;" x="303.922335" xlink:href="#mc0cef9b472" y="204.676588"/>
     <use style="fill:#1f77b4;stroke:#1f77b4;" x="241.273236" xlink:href="#mc0cef9b472" y="181.79447"/>
     <use style="fill:#1f77b4;stroke:#1f77b4;" x="272.595862" xlink:href="#mc0cef9b472" y="186.224173"/>
     <use style="fill:#1f77b4;stroke:#1f77b4;" x="272.595862" xlink:href="#mc0cef9b472" y="172.935873"/>
     <use style="fill:#1f77b4;stroke:#1f77b4;" x="283.038019" xlink:href="#mc0cef9b472" y="181.795549"/>
     <use style="fill:#1f77b4;stroke:#1f77b4;" x="272.595862" xlink:href="#mc0cef9b472" y="178.843582"/>
     <use style="fill:#1f77b4;stroke:#1f77b4;" x="262.154132" xlink:href="#mc0cef9b472" y="199.507891"/>
     <use style="fill:#1f77b4;stroke:#1f77b4;" x="283.038019" xlink:href="#mc0cef9b472" y="194.343483"/>
     <use style="fill:#1f77b4;stroke:#1f77b4;" x="314.362782" xlink:href="#mc0cef9b472" y="182.533166"/>
     <use style="fill:#1f77b4;stroke:#1f77b4;" x="283.035882" xlink:href="#mc0cef9b472" y="169.984566"/>
     <use style="fill:#1f77b4;stroke:#1f77b4;" x="283.035455" xlink:href="#mc0cef9b472" y="204.674155"/>
     <use style="fill:#1f77b4;stroke:#1f77b4;" x="230.839198" xlink:href="#mc0cef9b472" y="167.769512"/>
     <use style="fill:#1f77b4;stroke:#1f77b4;" x="303.918487" xlink:href="#mc0cef9b472" y="156.704203"/>
     <use style="fill:#1f77b4;stroke:#1f77b4;" x="303.914641" xlink:href="#mc0cef9b472" y="180.322574"/>
     <use style="fill:#1f77b4;stroke:#1f77b4;" x="272.595862" xlink:href="#mc0cef9b472" y="203.189896"/>
     <use style="fill:#1f77b4;stroke:#1f77b4;" x="230.842616" xlink:href="#mc0cef9b472" y="206.145102"/>
     <use style="fill:#1f77b4;stroke:#1f77b4;" x="262.155841" xlink:href="#mc0cef9b472" y="150.79949"/>
     <use style="fill:#1f77b4;stroke:#1f77b4;" x="199.512727" xlink:href="#mc0cef9b472" y="236.384718"/>
     <use style="fill:#1f77b4;stroke:#1f77b4;" x="293.482742" xlink:href="#mc0cef9b472" y="161.864762"/>
     <use style="fill:#1f77b4;stroke:#1f77b4;" x="251.710692" xlink:href="#mc0cef9b472" y="228.285438"/>
     <use style="fill:#1f77b4;stroke:#1f77b4;" x="199.49178" xlink:href="#mc0cef9b472" y="262.273584"/>
     <use style="fill:#1f77b4;stroke:#1f77b4;" x="251.702993" xlink:href="#mc0cef9b472" y="188.441523"/>
     <use style="fill:#1f77b4;stroke:#1f77b4;" x="324.832312" xlink:href="#mc0cef9b472" y="143.354116"/>
     <use style="fill:#1f77b4;stroke:#1f77b4;" x="272.595862" xlink:href="#mc0cef9b472" y="230.546392"/>
     <use style="fill:#1f77b4;stroke:#1f77b4;" x="230.815258" xlink:href="#mc0cef9b472" y="222.442716"/>
     <use style="fill:#1f77b4;stroke:#1f77b4;" x="283.042724" xlink:href="#mc0cef9b472" y="222.460756"/>
     <use style="fill:#1f77b4;stroke:#1f77b4;" x="272.595862" xlink:href="#mc0cef9b472" y="200.282095"/>
     <use style="fill:#1f77b4;stroke:#1f77b4;" x="314.381599" xlink:href="#mc0cef9b472" y="200.284812"/>
     <use style="fill:#1f77b4;stroke:#1f77b4;" x="314.374755" xlink:href="#mc0cef9b472" y="161.058167"/>
     <use style="fill:#1f77b4;stroke:#1f77b4;" x="283.038875" xlink:href="#mc0cef9b472" y="177.345125"/>
     <use style="fill:#1f77b4;stroke:#1f77b4;" x="272.595862" xlink:href="#mc0cef9b472" y="158.850448"/>
     <use style="fill:#1f77b4;stroke:#1f77b4;" x="220.382936" xlink:href="#mc0cef9b472" y="197.317456"/>
     <use style="fill:#1f77b4;stroke:#1f77b4;" x="262.151139" xlink:href="#mc0cef9b472" y="192.881158"/>
     <use style="fill:#1f77b4;stroke:#1f77b4;" x="293.486164" xlink:href="#mc0cef9b472" y="187.703639"/>
     <use style="fill:#1f77b4;stroke:#1f77b4;" x="324.817339" xlink:href="#mc0cef9b472" y="156.634267"/>
     <use style="fill:#1f77b4;stroke:#1f77b4;" x="293.480177" xlink:href="#mc0cef9b472" y="178.829704"/>
     <use style="fill:#1f77b4;stroke:#1f77b4;" x="262.154559" xlink:href="#mc0cef9b472" y="145.558726"/>
     <use style="fill:#1f77b4;stroke:#1f77b4;" x="293.479322" xlink:href="#mc0cef9b472" y="158.143741"/>
     <use style="fill:#1f77b4;stroke:#1f77b4;" x="356.122864" xlink:href="#mc0cef9b472" y="223.157855"/>
     <use style="fill:#1f77b4;stroke:#1f77b4;" x="314.34569" xlink:href="#mc0cef9b472" y="158.140318"/>
     <use style="fill:#1f77b4;stroke:#1f77b4;" x="283.031611" xlink:href="#mc0cef9b472" y="169.971373"/>
     <use style="fill:#1f77b4;stroke:#1f77b4;" x="303.901828" xlink:href="#mc0cef9b472" y="169.975003"/>
     <use style="fill:#1f77b4;stroke:#1f77b4;" x="251.727779" xlink:href="#mc0cef9b472" y="177.362969"/>
     <use style="fill:#1f77b4;stroke:#1f77b4;" x="303.900547" xlink:href="#mc0cef9b472" y="175.149017"/>
     <use style="fill:#1f77b4;stroke:#1f77b4;" x="230.861404" xlink:href="#mc0cef9b472" y="192.868256"/>
     <use style="fill:#1f77b4;stroke:#1f77b4;" x="262.16054" xlink:href="#mc0cef9b472" y="191.392265"/>
     <use style="fill:#1f77b4;stroke:#1f77b4;" x="262.160113" xlink:href="#mc0cef9b472" y="183.270768"/>
     <use style="fill:#1f77b4;stroke:#1f77b4;" x="262.159686" xlink:href="#mc0cef9b472" y="185.485852"/>
     <use style="fill:#1f77b4;stroke:#1f77b4;" x="293.469068" xlink:href="#mc0cef9b472" y="204.682019"/>
     <use style="fill:#1f77b4;stroke:#1f77b4;" x="241.288615" xlink:href="#mc0cef9b472" y="180.316164"/>
     <use style="fill:#1f77b4;stroke:#1f77b4;" x="262.158832" xlink:href="#mc0cef9b472" y="172.19379"/>
     <use style="fill:#1f77b4;stroke:#1f77b4;" x="230.846033" xlink:href="#mc0cef9b472" y="242.334885"/>
     <use style="fill:#1f77b4;stroke:#1f77b4;" x="283.035028" xlink:href="#mc0cef9b472" y="195.829466"/>
     <use style="fill:#1f77b4;stroke:#1f77b4;" x="251.718385" xlink:href="#mc0cef9b472" y="189.919005"/>
     <use style="fill:#1f77b4;stroke:#1f77b4;" x="293.475048" xlink:href="#mc0cef9b472" y="141.883947"/>
     <use style="fill:#1f77b4;stroke:#1f77b4;" x="272.595862" xlink:href="#mc0cef9b472" y="251.955449"/>
     <use style="fill:#1f77b4;stroke:#1f77b4;" x="241.279646" xlink:href="#mc0cef9b472" y="175.135851"/>
     <use style="fill:#1f77b4;stroke:#1f77b4;" x="272.595862" xlink:href="#mc0cef9b472" y="186.224173"/>
     <use style="fill:#1f77b4;stroke:#1f77b4;" x="283.035882" xlink:href="#mc0cef9b472" y="194.354371"/>
     <use style="fill:#1f77b4;stroke:#1f77b4;" x="272.595862" xlink:href="#mc0cef9b472" y="198.790429"/>
     <use style="fill:#1f77b4;stroke:#1f77b4;" x="303.914641" xlink:href="#mc0cef9b472" y="172.177109"/>
     <use style="fill:#1f77b4;stroke:#1f77b4;" x="335.225731" xlink:href="#mc0cef9b472" y="167.744762"/>
     <use style="fill:#1f77b4;stroke:#1f77b4;" x="314.338858" xlink:href="#mc0cef9b472" y="155.925634"/>
     <use style="fill:#1f77b4;stroke:#1f77b4;" x="314.332027" xlink:href="#mc0cef9b472" y="149.290117"/>
     <use style="fill:#1f77b4;stroke:#1f77b4;" x="251.731193" xlink:href="#mc0cef9b472" y="199.513687"/>
     <use style="fill:#1f77b4;stroke:#1f77b4;" x="283.02905" xlink:href="#mc0cef9b472" y="190.654821"/>
     <use style="fill:#1f77b4;stroke:#1f77b4;" x="262.163101" xlink:href="#mc0cef9b472" y="169.977477"/>
     <use style="fill:#1f77b4;stroke:#1f77b4;" x="199.563548" xlink:href="#mc0cef9b472" y="173.672711"/>
     <use style="fill:#1f77b4;stroke:#1f77b4;" x="283.032038" xlink:href="#mc0cef9b472" y="209.108186"/>
     <use style="fill:#1f77b4;stroke:#1f77b4;" x="283.031611" xlink:href="#mc0cef9b472" y="167.763518"/>
     <use style="fill:#1f77b4;stroke:#1f77b4;" x="168.242642" xlink:href="#mc0cef9b472" y="215.015491"/>
     <use style="fill:#1f77b4;stroke:#1f77b4;" x="272.595862" xlink:href="#mc0cef9b472" y="191.393892"/>
    </g>
   </g>
   <g id="matplotlib.axis_1">
    <g id="xtick_1">
     <g id="line2d_1">
      <defs>
       <path d="M 0 0 
L 0 3.5 
" id="mf96a5a1c36" style="stroke:#000000;stroke-width:0.8;"/>
      </defs>
      <g>
       <use style="stroke:#000000;stroke-width:0.8;" x="84.606241" xlink:href="#mf96a5a1c36" y="307.584"/>
      </g>
     </g>
     <g id="text_1">
      <!-- −1.5 -->
      <defs>
       <path d="M 10.59375 35.5 
L 73.1875 35.5 
L 73.1875 27.203125 
L 10.59375 27.203125 
z
" id="DejaVuSans-2212"/>
       <path d="M 12.40625 8.296875 
L 28.515625 8.296875 
L 28.515625 63.921875 
L 10.984375 60.40625 
L 10.984375 69.390625 
L 28.421875 72.90625 
L 38.28125 72.90625 
L 38.28125 8.296875 
L 54.390625 8.296875 
L 54.390625 0 
L 12.40625 0 
z
" id="DejaVuSans-31"/>
       <path d="M 10.6875 12.40625 
L 21 12.40625 
L 21 0 
L 10.6875 0 
z
" id="DejaVuSans-2e"/>
       <path d="M 10.796875 72.90625 
L 49.515625 72.90625 
L 49.515625 64.59375 
L 19.828125 64.59375 
L 19.828125 46.734375 
Q 21.96875 47.46875 24.109375 47.828125 
Q 26.265625 48.1875 28.421875 48.1875 
Q 40.625 48.1875 47.75 41.5 
Q 54.890625 34.8125 54.890625 23.390625 
Q 54.890625 11.625 47.5625 5.09375 
Q 40.234375 -1.421875 26.90625 -1.421875 
Q 22.3125 -1.421875 17.546875 -0.640625 
Q 12.796875 0.140625 7.71875 1.703125 
L 7.71875 11.625 
Q 12.109375 9.234375 16.796875 8.0625 
Q 21.484375 6.890625 26.703125 6.890625 
Q 35.15625 6.890625 40.078125 11.328125 
Q 45.015625 15.765625 45.015625 23.390625 
Q 45.015625 31 40.078125 35.4375 
Q 35.15625 39.890625 26.703125 39.890625 
Q 22.75 39.890625 18.8125 39.015625 
Q 14.890625 38.140625 10.796875 36.28125 
z
" id="DejaVuSans-35"/>
      </defs>
      <g transform="translate(72.464834 322.182437)scale(0.1 -0.1)">
       <use xlink:href="#DejaVuSans-2212"/>
       <use x="83.789062" xlink:href="#DejaVuSans-31"/>
       <use x="147.412109" xlink:href="#DejaVuSans-2e"/>
       <use x="179.199219" xlink:href="#DejaVuSans-35"/>
      </g>
     </g>
    </g>
    <g id="xtick_2">
     <g id="line2d_2">
      <g>
       <use style="stroke:#000000;stroke-width:0.8;" x="147.269448" xlink:href="#mf96a5a1c36" y="307.584"/>
      </g>
     </g>
     <g id="text_2">
      <!-- −1.0 -->
      <defs>
       <path d="M 31.78125 66.40625 
Q 24.171875 66.40625 20.328125 58.90625 
Q 16.5 51.421875 16.5 36.375 
Q 16.5 21.390625 20.328125 13.890625 
Q 24.171875 6.390625 31.78125 6.390625 
Q 39.453125 6.390625 43.28125 13.890625 
Q 47.125 21.390625 47.125 36.375 
Q 47.125 51.421875 43.28125 58.90625 
Q 39.453125 66.40625 31.78125 66.40625 
z
M 31.78125 74.21875 
Q 44.046875 74.21875 50.515625 64.515625 
Q 56.984375 54.828125 56.984375 36.375 
Q 56.984375 17.96875 50.515625 8.265625 
Q 44.046875 -1.421875 31.78125 -1.421875 
Q 19.53125 -1.421875 13.0625 8.265625 
Q 6.59375 17.96875 6.59375 36.375 
Q 6.59375 54.828125 13.0625 64.515625 
Q 19.53125 74.21875 31.78125 74.21875 
z
" id="DejaVuSans-30"/>
      </defs>
      <g transform="translate(135.128042 322.182437)scale(0.1 -0.1)">
       <use xlink:href="#DejaVuSans-2212"/>
       <use x="83.789062" xlink:href="#DejaVuSans-31"/>
       <use x="147.412109" xlink:href="#DejaVuSans-2e"/>
       <use x="179.199219" xlink:href="#DejaVuSans-30"/>
      </g>
     </g>
    </g>
    <g id="xtick_3">
     <g id="line2d_3">
      <g>
       <use style="stroke:#000000;stroke-width:0.8;" x="209.932655" xlink:href="#mf96a5a1c36" y="307.584"/>
      </g>
     </g>
     <g id="text_3">
      <!-- −0.5 -->
      <g transform="translate(197.791249 322.182437)scale(0.1 -0.1)">
       <use xlink:href="#DejaVuSans-2212"/>
       <use x="83.789062" xlink:href="#DejaVuSans-30"/>
       <use x="147.412109" xlink:href="#DejaVuSans-2e"/>
       <use x="179.199219" xlink:href="#DejaVuSans-35"/>
      </g>
     </g>
    </g>
    <g id="xtick_4">
     <g id="line2d_4">
      <g>
       <use style="stroke:#000000;stroke-width:0.8;" x="272.595862" xlink:href="#mf96a5a1c36" y="307.584"/>
      </g>
     </g>
     <g id="text_4">
      <!-- 0.0 -->
      <g transform="translate(264.644299 322.182437)scale(0.1 -0.1)">
       <use xlink:href="#DejaVuSans-30"/>
       <use x="63.623047" xlink:href="#DejaVuSans-2e"/>
       <use x="95.410156" xlink:href="#DejaVuSans-30"/>
      </g>
     </g>
    </g>
    <g id="xtick_5">
     <g id="line2d_5">
      <g>
       <use style="stroke:#000000;stroke-width:0.8;" x="335.259069" xlink:href="#mf96a5a1c36" y="307.584"/>
      </g>
     </g>
     <g id="text_5">
      <!-- 0.5 -->
      <g transform="translate(327.307506 322.182437)scale(0.1 -0.1)">
       <use xlink:href="#DejaVuSans-30"/>
       <use x="63.623047" xlink:href="#DejaVuSans-2e"/>
       <use x="95.410156" xlink:href="#DejaVuSans-35"/>
      </g>
     </g>
    </g>
    <g id="xtick_6">
     <g id="line2d_6">
      <g>
       <use style="stroke:#000000;stroke-width:0.8;" x="397.922276" xlink:href="#mf96a5a1c36" y="307.584"/>
      </g>
     </g>
     <g id="text_6">
      <!-- 1.0 -->
      <g transform="translate(389.970713 322.182437)scale(0.1 -0.1)">
       <use xlink:href="#DejaVuSans-31"/>
       <use x="63.623047" xlink:href="#DejaVuSans-2e"/>
       <use x="95.410156" xlink:href="#DejaVuSans-30"/>
      </g>
     </g>
    </g>
    <g id="text_7">
     <!-- SPY -->
     <defs>
      <path d="M 53.515625 70.515625 
L 53.515625 60.890625 
Q 47.90625 63.578125 42.921875 64.890625 
Q 37.9375 66.21875 33.296875 66.21875 
Q 25.25 66.21875 20.875 63.09375 
Q 16.5 59.96875 16.5 54.203125 
Q 16.5 49.359375 19.40625 46.890625 
Q 22.3125 44.4375 30.421875 42.921875 
L 36.375 41.703125 
Q 47.40625 39.59375 52.65625 34.296875 
Q 57.90625 29 57.90625 20.125 
Q 57.90625 9.515625 50.796875 4.046875 
Q 43.703125 -1.421875 29.984375 -1.421875 
Q 24.8125 -1.421875 18.96875 -0.25 
Q 13.140625 0.921875 6.890625 3.21875 
L 6.890625 13.375 
Q 12.890625 10.015625 18.65625 8.296875 
Q 24.421875 6.59375 29.984375 6.59375 
Q 38.421875 6.59375 43.015625 9.90625 
Q 47.609375 13.234375 47.609375 19.390625 
Q 47.609375 24.75 44.3125 27.78125 
Q 41.015625 30.8125 33.5 32.328125 
L 27.484375 33.5 
Q 16.453125 35.6875 11.515625 40.375 
Q 6.59375 45.0625 6.59375 53.421875 
Q 6.59375 63.09375 13.40625 68.65625 
Q 20.21875 74.21875 32.171875 74.21875 
Q 37.3125 74.21875 42.625 73.28125 
Q 47.953125 72.359375 53.515625 70.515625 
z
" id="DejaVuSans-53"/>
      <path d="M 19.671875 64.796875 
L 19.671875 37.40625 
L 32.078125 37.40625 
Q 38.96875 37.40625 42.71875 40.96875 
Q 46.484375 44.53125 46.484375 51.125 
Q 46.484375 57.671875 42.71875 61.234375 
Q 38.96875 64.796875 32.078125 64.796875 
z
M 9.8125 72.90625 
L 32.078125 72.90625 
Q 44.34375 72.90625 50.609375 67.359375 
Q 56.890625 61.8125 56.890625 51.125 
Q 56.890625 40.328125 50.609375 34.8125 
Q 44.34375 29.296875 32.078125 29.296875 
L 19.671875 29.296875 
L 19.671875 0 
L 9.8125 0 
z
" id="DejaVuSans-50"/>
      <path d="M -0.203125 72.90625 
L 10.40625 72.90625 
L 30.609375 42.921875 
L 50.6875 72.90625 
L 61.28125 72.90625 
L 35.5 34.71875 
L 35.5 0 
L 25.59375 0 
L 25.59375 34.71875 
z
" id="DejaVuSans-59"/>
     </defs>
     <g transform="translate(226.918594 335.860562)scale(0.1 -0.1)">
      <use xlink:href="#DejaVuSans-53"/>
      <use x="63.476562" xlink:href="#DejaVuSans-50"/>
      <use x="123.748047" xlink:href="#DejaVuSans-59"/>
     </g>
    </g>
   </g>
   <g id="matplotlib.axis_2">
    <g id="ytick_1">
     <g id="line2d_7">
      <defs>
       <path d="M 0 0 
L -3.5 0 
" id="m67bdb11c49" style="stroke:#000000;stroke-width:0.8;"/>
      </defs>
      <g>
       <use style="stroke:#000000;stroke-width:0.8;" x="57.6" xlink:href="#m67bdb11c49" y="285.117999"/>
      </g>
     </g>
     <g id="text_8">
      <!-- −0.75 -->
      <defs>
       <path d="M 8.203125 72.90625 
L 55.078125 72.90625 
L 55.078125 68.703125 
L 28.609375 0 
L 18.3125 0 
L 43.21875 64.59375 
L 8.203125 64.59375 
z
" id="DejaVuSans-37"/>
      </defs>
      <g transform="translate(19.954687 288.917218)scale(0.1 -0.1)">
       <use xlink:href="#DejaVuSans-2212"/>
       <use x="83.789062" xlink:href="#DejaVuSans-30"/>
       <use x="147.412109" xlink:href="#DejaVuSans-2e"/>
       <use x="179.199219" xlink:href="#DejaVuSans-37"/>
       <use x="242.822266" xlink:href="#DejaVuSans-35"/>
      </g>
     </g>
    </g>
    <g id="ytick_2">
     <g id="line2d_8">
      <g>
       <use style="stroke:#000000;stroke-width:0.8;" x="57.6" xlink:href="#m67bdb11c49" y="252.153391"/>
      </g>
     </g>
     <g id="text_9">
      <!-- −0.50 -->
      <g transform="translate(19.954687 255.952609)scale(0.1 -0.1)">
       <use xlink:href="#DejaVuSans-2212"/>
       <use x="83.789062" xlink:href="#DejaVuSans-30"/>
       <use x="147.412109" xlink:href="#DejaVuSans-2e"/>
       <use x="179.199219" xlink:href="#DejaVuSans-35"/>
       <use x="242.822266" xlink:href="#DejaVuSans-30"/>
      </g>
     </g>
    </g>
    <g id="ytick_3">
     <g id="line2d_9">
      <g>
       <use style="stroke:#000000;stroke-width:0.8;" x="57.6" xlink:href="#m67bdb11c49" y="219.188782"/>
      </g>
     </g>
     <g id="text_10">
      <!-- −0.25 -->
      <defs>
       <path d="M 19.1875 8.296875 
L 53.609375 8.296875 
L 53.609375 0 
L 7.328125 0 
L 7.328125 8.296875 
Q 12.9375 14.109375 22.625 23.890625 
Q 32.328125 33.6875 34.8125 36.53125 
Q 39.546875 41.84375 41.421875 45.53125 
Q 43.3125 49.21875 43.3125 52.78125 
Q 43.3125 58.59375 39.234375 62.25 
Q 35.15625 65.921875 28.609375 65.921875 
Q 23.96875 65.921875 18.8125 64.3125 
Q 13.671875 62.703125 7.8125 59.421875 
L 7.8125 69.390625 
Q 13.765625 71.78125 18.9375 73 
Q 24.125 74.21875 28.421875 74.21875 
Q 39.75 74.21875 46.484375 68.546875 
Q 53.21875 62.890625 53.21875 53.421875 
Q 53.21875 48.921875 51.53125 44.890625 
Q 49.859375 40.875 45.40625 35.40625 
Q 44.1875 33.984375 37.640625 27.21875 
Q 31.109375 20.453125 19.1875 8.296875 
z
" id="DejaVuSans-32"/>
      </defs>
      <g transform="translate(19.954687 222.988001)scale(0.1 -0.1)">
       <use xlink:href="#DejaVuSans-2212"/>
       <use x="83.789062" xlink:href="#DejaVuSans-30"/>
       <use x="147.412109" xlink:href="#DejaVuSans-2e"/>
       <use x="179.199219" xlink:href="#DejaVuSans-32"/>
       <use x="242.822266" xlink:href="#DejaVuSans-35"/>
      </g>
     </g>
    </g>
    <g id="ytick_4">
     <g id="line2d_10">
      <g>
       <use style="stroke:#000000;stroke-width:0.8;" x="57.6" xlink:href="#m67bdb11c49" y="186.224173"/>
      </g>
     </g>
     <g id="text_11">
      <!-- 0.00 -->
      <g transform="translate(28.334375 190.023392)scale(0.1 -0.1)">
       <use xlink:href="#DejaVuSans-30"/>
       <use x="63.623047" xlink:href="#DejaVuSans-2e"/>
       <use x="95.410156" xlink:href="#DejaVuSans-30"/>
       <use x="159.033203" xlink:href="#DejaVuSans-30"/>
      </g>
     </g>
    </g>
    <g id="ytick_5">
     <g id="line2d_11">
      <g>
       <use style="stroke:#000000;stroke-width:0.8;" x="57.6" xlink:href="#m67bdb11c49" y="153.259565"/>
      </g>
     </g>
     <g id="text_12">
      <!-- 0.25 -->
      <g transform="translate(28.334375 157.058784)scale(0.1 -0.1)">
       <use xlink:href="#DejaVuSans-30"/>
       <use x="63.623047" xlink:href="#DejaVuSans-2e"/>
       <use x="95.410156" xlink:href="#DejaVuSans-32"/>
       <use x="159.033203" xlink:href="#DejaVuSans-35"/>
      </g>
     </g>
    </g>
    <g id="ytick_6">
     <g id="line2d_12">
      <g>
       <use style="stroke:#000000;stroke-width:0.8;" x="57.6" xlink:href="#m67bdb11c49" y="120.294956"/>
      </g>
     </g>
     <g id="text_13">
      <!-- 0.50 -->
      <g transform="translate(28.334375 124.094175)scale(0.1 -0.1)">
       <use xlink:href="#DejaVuSans-30"/>
       <use x="63.623047" xlink:href="#DejaVuSans-2e"/>
       <use x="95.410156" xlink:href="#DejaVuSans-35"/>
       <use x="159.033203" xlink:href="#DejaVuSans-30"/>
      </g>
     </g>
    </g>
    <g id="ytick_7">
     <g id="line2d_13">
      <g>
       <use style="stroke:#000000;stroke-width:0.8;" x="57.6" xlink:href="#m67bdb11c49" y="87.330348"/>
      </g>
     </g>
     <g id="text_14">
      <!-- 0.75 -->
      <g transform="translate(28.334375 91.129567)scale(0.1 -0.1)">
       <use xlink:href="#DejaVuSans-30"/>
       <use x="63.623047" xlink:href="#DejaVuSans-2e"/>
       <use x="95.410156" xlink:href="#DejaVuSans-37"/>
       <use x="159.033203" xlink:href="#DejaVuSans-35"/>
      </g>
     </g>
    </g>
    <g id="ytick_8">
     <g id="line2d_14">
      <g>
       <use style="stroke:#000000;stroke-width:0.8;" x="57.6" xlink:href="#m67bdb11c49" y="54.365739"/>
      </g>
     </g>
     <g id="text_15">
      <!-- 1.00 -->
      <g transform="translate(28.334375 58.164958)scale(0.1 -0.1)">
       <use xlink:href="#DejaVuSans-31"/>
       <use x="63.623047" xlink:href="#DejaVuSans-2e"/>
       <use x="95.410156" xlink:href="#DejaVuSans-30"/>
       <use x="159.033203" xlink:href="#DejaVuSans-30"/>
      </g>
     </g>
    </g>
    <g id="text_16">
     <!-- AMZN -->
     <defs>
      <path d="M 34.1875 63.1875 
L 20.796875 26.90625 
L 47.609375 26.90625 
z
M 28.609375 72.90625 
L 39.796875 72.90625 
L 67.578125 0 
L 57.328125 0 
L 50.6875 18.703125 
L 17.828125 18.703125 
L 11.1875 0 
L 0.78125 0 
z
" id="DejaVuSans-41"/>
      <path d="M 9.8125 72.90625 
L 24.515625 72.90625 
L 43.109375 23.296875 
L 61.8125 72.90625 
L 76.515625 72.90625 
L 76.515625 0 
L 66.890625 0 
L 66.890625 64.015625 
L 48.09375 14.015625 
L 38.1875 14.015625 
L 19.390625 64.015625 
L 19.390625 0 
L 9.8125 0 
z
" id="DejaVuSans-4d"/>
      <path d="M 5.609375 72.90625 
L 62.890625 72.90625 
L 62.890625 65.375 
L 16.796875 8.296875 
L 64.015625 8.296875 
L 64.015625 0 
L 4.5 0 
L 4.5 7.515625 
L 50.59375 64.59375 
L 5.609375 64.59375 
z
" id="DejaVuSans-5a"/>
      <path d="M 9.8125 72.90625 
L 23.09375 72.90625 
L 55.421875 11.921875 
L 55.421875 72.90625 
L 64.984375 72.90625 
L 64.984375 0 
L 51.703125 0 
L 19.390625 60.984375 
L 19.390625 0 
L 9.8125 0 
z
" id="DejaVuSans-4e"/>
     </defs>
     <g transform="translate(13.875 189.428)rotate(-90)scale(0.1 -0.1)">
      <use xlink:href="#DejaVuSans-41"/>
      <use x="68.408203" xlink:href="#DejaVuSans-4d"/>
      <use x="154.6875" xlink:href="#DejaVuSans-5a"/>
      <use x="223.193359" xlink:href="#DejaVuSans-4e"/>
     </g>
    </g>
   </g>
   <g id="line2d_15">
    <path clip-path="url(#p9ae94c01f9)" d="M 272.595862 185.92171 
L 230.880175 206.062772 
L 230.880175 206.062772 
L 230.880175 206.062772 
L 324.746868 160.742294 
L 293.446885 175.854472 
L 293.446885 175.854472 
L 189.17472 226.198893 
L 262.161821 190.959447 
L 262.161821 190.959447 
L 303.899266 170.80788 
L 293.46053 175.847884 
L 293.46053 175.847884 
L 220.438457 211.104215 
L 220.438457 211.104215 
L 220.438457 211.104215 
L 324.763934 160.734054 
L 324.763934 160.734054 
L 324.763934 160.734054 
L 74.397724 281.615229 
L 74.397724 281.615229 
L 74.397724 281.615229 
L 397.922276 125.41193 
L 272.595862 185.92171 
" style="fill:none;stroke:#ff0000;stroke-linecap:square;stroke-width:1.5;"/>
   </g>
   <g id="patch_3">
    <path d="M 57.6 307.584 
L 57.6 41.472 
" style="fill:none;stroke:#000000;stroke-linecap:square;stroke-linejoin:miter;stroke-width:0.8;"/>
   </g>
   <g id="patch_4">
    <path d="M 414.72 307.584 
L 414.72 41.472 
" style="fill:none;stroke:#000000;stroke-linecap:square;stroke-linejoin:miter;stroke-width:0.8;"/>
   </g>
   <g id="patch_5">
    <path d="M 57.6 307.584 
L 414.72 307.584 
" style="fill:none;stroke:#000000;stroke-linecap:square;stroke-linejoin:miter;stroke-width:0.8;"/>
   </g>
   <g id="patch_6">
    <path d="M 57.6 41.472 
L 414.72 41.472 
" style="fill:none;stroke:#000000;stroke-linecap:square;stroke-linejoin:miter;stroke-width:0.8;"/>
   </g>
   <g id="text_17">
    <!-- $\mathrm{Scatter Plot\ of\ AMZN\ \alpha:\ 0.00\ \beta:\ 0.46\ corr:\ 0.57}\ $ -->
    <defs>
     <path d="M 48.78125 52.59375 
L 48.78125 44.1875 
Q 44.96875 46.296875 41.140625 47.34375 
Q 37.3125 48.390625 33.40625 48.390625 
Q 24.65625 48.390625 19.8125 42.84375 
Q 14.984375 37.3125 14.984375 27.296875 
Q 14.984375 17.28125 19.8125 11.734375 
Q 24.65625 6.203125 33.40625 6.203125 
Q 37.3125 6.203125 41.140625 7.25 
Q 44.96875 8.296875 48.78125 10.40625 
L 48.78125 2.09375 
Q 45.015625 0.34375 40.984375 -0.53125 
Q 36.96875 -1.421875 32.421875 -1.421875 
Q 20.0625 -1.421875 12.78125 6.34375 
Q 5.515625 14.109375 5.515625 27.296875 
Q 5.515625 40.671875 12.859375 48.328125 
Q 20.21875 56 33.015625 56 
Q 37.15625 56 41.109375 55.140625 
Q 45.0625 54.296875 48.78125 52.59375 
z
" id="DejaVuSans-63"/>
     <path d="M 34.28125 27.484375 
Q 23.390625 27.484375 19.1875 25 
Q 14.984375 22.515625 14.984375 16.5 
Q 14.984375 11.71875 18.140625 8.90625 
Q 21.296875 6.109375 26.703125 6.109375 
Q 34.1875 6.109375 38.703125 11.40625 
Q 43.21875 16.703125 43.21875 25.484375 
L 43.21875 27.484375 
z
M 52.203125 31.203125 
L 52.203125 0 
L 43.21875 0 
L 43.21875 8.296875 
Q 40.140625 3.328125 35.546875 0.953125 
Q 30.953125 -1.421875 24.3125 -1.421875 
Q 15.921875 -1.421875 10.953125 3.296875 
Q 6 8.015625 6 15.921875 
Q 6 25.140625 12.171875 29.828125 
Q 18.359375 34.515625 30.609375 34.515625 
L 43.21875 34.515625 
L 43.21875 35.40625 
Q 43.21875 41.609375 39.140625 45 
Q 35.0625 48.390625 27.6875 48.390625 
Q 23 48.390625 18.546875 47.265625 
Q 14.109375 46.140625 10.015625 43.890625 
L 10.015625 52.203125 
Q 14.9375 54.109375 19.578125 55.046875 
Q 24.21875 56 28.609375 56 
Q 40.484375 56 46.34375 49.84375 
Q 52.203125 43.703125 52.203125 31.203125 
z
" id="DejaVuSans-61"/>
     <path d="M 18.3125 70.21875 
L 18.3125 54.6875 
L 36.8125 54.6875 
L 36.8125 47.703125 
L 18.3125 47.703125 
L 18.3125 18.015625 
Q 18.3125 11.328125 20.140625 9.421875 
Q 21.96875 7.515625 27.59375 7.515625 
L 36.8125 7.515625 
L 36.8125 0 
L 27.59375 0 
Q 17.1875 0 13.234375 3.875 
Q 9.28125 7.765625 9.28125 18.015625 
L 9.28125 47.703125 
L 2.6875 47.703125 
L 2.6875 54.6875 
L 9.28125 54.6875 
L 9.28125 70.21875 
z
" id="DejaVuSans-74"/>
     <path d="M 56.203125 29.59375 
L 56.203125 25.203125 
L 14.890625 25.203125 
Q 15.484375 15.921875 20.484375 11.0625 
Q 25.484375 6.203125 34.421875 6.203125 
Q 39.59375 6.203125 44.453125 7.46875 
Q 49.3125 8.734375 54.109375 11.28125 
L 54.109375 2.78125 
Q 49.265625 0.734375 44.1875 -0.34375 
Q 39.109375 -1.421875 33.890625 -1.421875 
Q 20.796875 -1.421875 13.15625 6.1875 
Q 5.515625 13.8125 5.515625 26.8125 
Q 5.515625 40.234375 12.765625 48.109375 
Q 20.015625 56 32.328125 56 
Q 43.359375 56 49.78125 48.890625 
Q 56.203125 41.796875 56.203125 29.59375 
z
M 47.21875 32.234375 
Q 47.125 39.59375 43.09375 43.984375 
Q 39.0625 48.390625 32.421875 48.390625 
Q 24.90625 48.390625 20.390625 44.140625 
Q 15.875 39.890625 15.1875 32.171875 
z
" id="DejaVuSans-65"/>
     <path d="M 41.109375 46.296875 
Q 39.59375 47.171875 37.8125 47.578125 
Q 36.03125 48 33.890625 48 
Q 26.265625 48 22.1875 43.046875 
Q 18.109375 38.09375 18.109375 28.8125 
L 18.109375 0 
L 9.078125 0 
L 9.078125 54.6875 
L 18.109375 54.6875 
L 18.109375 46.1875 
Q 20.953125 51.171875 25.484375 53.578125 
Q 30.03125 56 36.53125 56 
Q 37.453125 56 38.578125 55.875 
Q 39.703125 55.765625 41.0625 55.515625 
z
" id="DejaVuSans-72"/>
     <path d="M 9.421875 75.984375 
L 18.40625 75.984375 
L 18.40625 0 
L 9.421875 0 
z
" id="DejaVuSans-6c"/>
     <path d="M 30.609375 48.390625 
Q 23.390625 48.390625 19.1875 42.75 
Q 14.984375 37.109375 14.984375 27.296875 
Q 14.984375 17.484375 19.15625 11.84375 
Q 23.34375 6.203125 30.609375 6.203125 
Q 37.796875 6.203125 41.984375 11.859375 
Q 46.1875 17.53125 46.1875 27.296875 
Q 46.1875 37.015625 41.984375 42.703125 
Q 37.796875 48.390625 30.609375 48.390625 
z
M 30.609375 56 
Q 42.328125 56 49.015625 48.375 
Q 55.71875 40.765625 55.71875 27.296875 
Q 55.71875 13.875 49.015625 6.21875 
Q 42.328125 -1.421875 30.609375 -1.421875 
Q 18.84375 -1.421875 12.171875 6.21875 
Q 5.515625 13.875 5.515625 27.296875 
Q 5.515625 40.765625 12.171875 48.375 
Q 18.84375 56 30.609375 56 
z
" id="DejaVuSans-6f"/>
     <path d="M 37.109375 75.984375 
L 37.109375 68.5 
L 28.515625 68.5 
Q 23.6875 68.5 21.796875 66.546875 
Q 19.921875 64.59375 19.921875 59.515625 
L 19.921875 54.6875 
L 34.71875 54.6875 
L 34.71875 47.703125 
L 19.921875 47.703125 
L 19.921875 0 
L 10.890625 0 
L 10.890625 47.703125 
L 2.296875 47.703125 
L 2.296875 54.6875 
L 10.890625 54.6875 
L 10.890625 58.5 
Q 10.890625 67.625 15.140625 71.796875 
Q 19.390625 75.984375 28.609375 75.984375 
z
" id="DejaVuSans-66"/>
     <path d="M 41.3125 25.4375 
L 39.15625 36.71875 
Q 36.96875 48.296875 28.265625 48.296875 
Q 21.734375 48.296875 18.75 42.921875 
Q 14.984375 36.1875 14.984375 27.296875 
Q 14.984375 16.546875 18.65625 11.421875 
Q 22.359375 6.203125 28.265625 6.203125 
Q 34.8125 6.203125 38.328125 16.609375 
z
M 46.34375 40.375 
L 51.171875 54.6875 
L 59.1875 54.6875 
L 49.171875 25.046875 
L 51.125 14.359375 
Q 51.5625 11.96875 53.265625 9.96875 
Q 55.28125 7.625 56.84375 7.625 
L 61.140625 7.625 
L 61.140625 0 
L 55.765625 0 
Q 51.171875 0 47.078125 4.109375 
Q 45.0625 6.15625 44.234375 10.453125 
Q 42 5.03125 37.40625 0.78125 
Q 35.25 -1.21875 28.265625 -1.21875 
Q 16.796875 -1.21875 11.234375 6.203125 
Q 5.515625 13.875 5.515625 27.296875 
Q 5.515625 41.65625 11.71875 48.390625 
Q 18.609375 55.90625 28.265625 55.90625 
Q 43.453125 55.90625 46.34375 40.375 
z
" id="DejaVuSans-3b1"/>
     <path d="M 11.71875 12.40625 
L 22.015625 12.40625 
L 22.015625 0 
L 11.71875 0 
z
M 11.71875 51.703125 
L 22.015625 51.703125 
L 22.015625 39.3125 
L 11.71875 39.3125 
z
" id="DejaVuSans-3a"/>
     <path d="M 18.40625 3.375 
L 18.40625 -20.796875 
L 9.375 -20.796875 
L 9.375 54.34375 
Q 9.375 76.609375 30.171875 76.609375 
Q 51.375 76.609375 51.375 57.8125 
Q 51.375 44.4375 42.96875 39.546875 
Q 56.640625 35.15625 56.640625 22.125 
Q 56.640625 -1.03125 33.109375 -1.03125 
Q 22.75 -1.03125 18.40625 3.375 
z
M 18.40625 15.09375 
Q 23.828125 6.640625 33.453125 6.640625 
Q 47.515625 6.640625 47.515625 21.96875 
Q 47.515625 35.75 24.859375 34.671875 
L 24.859375 42.96875 
Q 42.578125 42.96875 42.578125 58.59375 
Q 42.578125 69.28125 31.15625 69.28125 
Q 18.40625 69.28125 18.40625 54.046875 
z
" id="DejaVuSans-3b2"/>
     <path d="M 37.796875 64.3125 
L 12.890625 25.390625 
L 37.796875 25.390625 
z
M 35.203125 72.90625 
L 47.609375 72.90625 
L 47.609375 25.390625 
L 58.015625 25.390625 
L 58.015625 17.1875 
L 47.609375 17.1875 
L 47.609375 0 
L 37.796875 0 
L 37.796875 17.1875 
L 4.890625 17.1875 
L 4.890625 26.703125 
z
" id="DejaVuSans-34"/>
     <path d="M 33.015625 40.375 
Q 26.375 40.375 22.484375 35.828125 
Q 18.609375 31.296875 18.609375 23.390625 
Q 18.609375 15.53125 22.484375 10.953125 
Q 26.375 6.390625 33.015625 6.390625 
Q 39.65625 6.390625 43.53125 10.953125 
Q 47.40625 15.53125 47.40625 23.390625 
Q 47.40625 31.296875 43.53125 35.828125 
Q 39.65625 40.375 33.015625 40.375 
z
M 52.59375 71.296875 
L 52.59375 62.3125 
Q 48.875 64.0625 45.09375 64.984375 
Q 41.3125 65.921875 37.59375 65.921875 
Q 27.828125 65.921875 22.671875 59.328125 
Q 17.53125 52.734375 16.796875 39.40625 
Q 19.671875 43.65625 24.015625 45.921875 
Q 28.375 48.1875 33.59375 48.1875 
Q 44.578125 48.1875 50.953125 41.515625 
Q 57.328125 34.859375 57.328125 23.390625 
Q 57.328125 12.15625 50.6875 5.359375 
Q 44.046875 -1.421875 33.015625 -1.421875 
Q 20.359375 -1.421875 13.671875 8.265625 
Q 6.984375 17.96875 6.984375 36.375 
Q 6.984375 53.65625 15.1875 63.9375 
Q 23.390625 74.21875 37.203125 74.21875 
Q 40.921875 74.21875 44.703125 73.484375 
Q 48.484375 72.75 52.59375 71.296875 
z
" id="DejaVuSans-36"/>
    </defs>
    <g transform="translate(89.16 35.472)scale(0.12 -0.12)">
     <use transform="translate(0 0.390625)" xlink:href="#DejaVuSans-53"/>
     <use transform="translate(63.476562 0.390625)" xlink:href="#DejaVuSans-63"/>
     <use transform="translate(118.457031 0.390625)" xlink:href="#DejaVuSans-61"/>
     <use transform="translate(179.736328 0.390625)" xlink:href="#DejaVuSans-74"/>
     <use transform="translate(218.945312 0.390625)" xlink:href="#DejaVuSans-74"/>
     <use transform="translate(258.154297 0.390625)" xlink:href="#DejaVuSans-65"/>
     <use transform="translate(319.677734 0.390625)" xlink:href="#DejaVuSans-72"/>
     <use transform="translate(360.791016 0.390625)" xlink:href="#DejaVuSans-50"/>
     <use transform="translate(421.09375 0.390625)" xlink:href="#DejaVuSans-6c"/>
     <use transform="translate(448.876953 0.390625)" xlink:href="#DejaVuSans-6f"/>
     <use transform="translate(510.058594 0.390625)" xlink:href="#DejaVuSans-74"/>
     <use transform="translate(581.737957 0.390625)" xlink:href="#DejaVuSans-6f"/>
     <use transform="translate(642.919597 0.390625)" xlink:href="#DejaVuSans-66"/>
     <use transform="translate(710.595054 0.390625)" xlink:href="#DejaVuSans-41"/>
     <use transform="translate(779.003257 0.390625)" xlink:href="#DejaVuSans-4d"/>
     <use transform="translate(865.282554 0.390625)" xlink:href="#DejaVuSans-5a"/>
     <use transform="translate(933.788413 0.390625)" xlink:href="#DejaVuSans-4e"/>
     <use transform="translate(1041.063479 0.390625)" xlink:href="#DejaVuSans-3b1"/>
     <use transform="translate(1126.46387 0.390625)" xlink:href="#DejaVuSans-3a"/>
     <use transform="translate(1212.108076 0.390625)" xlink:href="#DejaVuSans-30"/>
     <use transform="translate(1275.731123 0.390625)" xlink:href="#DejaVuSans-2e"/>
     <use transform="translate(1307.518232 0.390625)" xlink:href="#DejaVuSans-30"/>
     <use transform="translate(1371.141279 0.390625)" xlink:href="#DejaVuSans-30"/>
     <use transform="translate(1467.234705 0.390625)" xlink:href="#DejaVuSans-3b2"/>
     <use transform="translate(1550.535486 0.390625)" xlink:href="#DejaVuSans-3a"/>
     <use transform="translate(1636.179692 0.390625)" xlink:href="#DejaVuSans-30"/>
     <use transform="translate(1699.802739 0.390625)" xlink:href="#DejaVuSans-2e"/>
     <use transform="translate(1731.589849 0.390625)" xlink:href="#DejaVuSans-34"/>
     <use transform="translate(1795.212896 0.390625)" xlink:href="#DejaVuSans-36"/>
     <use transform="translate(1891.306321 0.390625)" xlink:href="#DejaVuSans-63"/>
     <use transform="translate(1946.28679 0.390625)" xlink:href="#DejaVuSans-6f"/>
     <use transform="translate(2007.46843 0.390625)" xlink:href="#DejaVuSans-72"/>
     <use transform="translate(2048.581711 0.390625)" xlink:href="#DejaVuSans-72"/>
     <use transform="translate(2109.177415 0.390625)" xlink:href="#DejaVuSans-3a"/>
     <use transform="translate(2194.821621 0.390625)" xlink:href="#DejaVuSans-30"/>
     <use transform="translate(2258.444668 0.390625)" xlink:href="#DejaVuSans-2e"/>
     <use transform="translate(2290.231777 0.390625)" xlink:href="#DejaVuSans-35"/>
     <use transform="translate(2353.745449 0.390625)" xlink:href="#DejaVuSans-37"/>
    </g>
   </g>
  </g>
 </g>
 <defs>
  <clipPath id="p9ae94c01f9">
   <rect height="266.112" width="357.12" x="57.6" y="41.472"/>
  </clipPath>
 </defs>
</svg>
