<?xml version="1.0" encoding="utf-8" standalone="no"?>
<!DOCTYPE svg PUBLIC "-//W3C//DTD SVG 1.1//EN"
  "http://www.w3.org/Graphics/SVG/1.1/DTD/svg11.dtd">
<!-- Created with matplotlib (http://matplotlib.org/) -->
<svg height="345pt" version="1.1" viewBox="0 0 460 345" width="460pt" xmlns="http://www.w3.org/2000/svg" xmlns:xlink="http://www.w3.org/1999/xlink">
 <defs>
  <style type="text/css">
*{stroke-linecap:butt;stroke-linejoin:round;}
  </style>
 </defs>
 <g id="figure_1">
  <g id="patch_1">
   <path d="M 0 345.6 
L 460.8 345.6 
L 460.8 0 
L 0 0 
z
" style="fill:#ffffff;"/>
  </g>
  <g id="axes_1">
   <g id="patch_2">
    <path d="M 57.6 307.584 
L 414.72 307.584 
L 414.72 41.472 
L 57.6 41.472 
z
" style="fill:#ffffff;"/>
   </g>
   <g id="matplotlib.axis_1">
    <g id="xtick_1">
     <g id="line2d_1">
      <defs>
       <path d="M 0 0 
L 0 3.5 
" id="m9d75e52b84" style="stroke:#000000;stroke-width:0.8;"/>
      </defs>
      <g>
       <use style="stroke:#000000;stroke-width:0.8;" x="57.6" xlink:href="#m9d75e52b84" y="307.584"/>
      </g>
     </g>
     <g id="text_1">
      <!-- 2017-06-14 09:51:17 -->
      <defs>
       <path d="M 19.1875 8.296875 
L 53.609375 8.296875 
L 53.609375 0 
L 7.328125 0 
L 7.328125 8.296875 
Q 12.9375 14.109375 22.625 23.890625 
Q 32.328125 33.6875 34.8125 36.53125 
Q 39.546875 41.84375 41.421875 45.53125 
Q 43.3125 49.21875 43.3125 52.78125 
Q 43.3125 58.59375 39.234375 62.25 
Q 35.15625 65.921875 28.609375 65.921875 
Q 23.96875 65.921875 18.8125 64.3125 
Q 13.671875 62.703125 7.8125 59.421875 
L 7.8125 69.390625 
Q 13.765625 71.78125 18.9375 73 
Q 24.125 74.21875 28.421875 74.21875 
Q 39.75 74.21875 46.484375 68.546875 
Q 53.21875 62.890625 53.21875 53.421875 
Q 53.21875 48.921875 51.53125 44.890625 
Q 49.859375 40.875 45.40625 35.40625 
Q 44.1875 33.984375 37.640625 27.21875 
Q 31.109375 20.453125 19.1875 8.296875 
z
" id="DejaVuSans-32"/>
       <path d="M 31.78125 66.40625 
Q 24.171875 66.40625 20.328125 58.90625 
Q 16.5 51.421875 16.5 36.375 
Q 16.5 21.390625 20.328125 13.890625 
Q 24.171875 6.390625 31.78125 6.390625 
Q 39.453125 6.390625 43.28125 13.890625 
Q 47.125 21.390625 47.125 36.375 
Q 47.125 51.421875 43.28125 58.90625 
Q 39.453125 66.40625 31.78125 66.40625 
z
M 31.78125 74.21875 
Q 44.046875 74.21875 50.515625 64.515625 
Q 56.984375 54.828125 56.984375 36.375 
Q 56.984375 17.96875 50.515625 8.265625 
Q 44.046875 -1.421875 31.78125 -1.421875 
Q 19.53125 -1.421875 13.0625 8.265625 
Q 6.59375 17.96875 6.59375 36.375 
Q 6.59375 54.828125 13.0625 64.515625 
Q 19.53125 74.21875 31.78125 74.21875 
z
" id="DejaVuSans-30"/>
       <path d="M 12.40625 8.296875 
L 28.515625 8.296875 
L 28.515625 63.921875 
L 10.984375 60.40625 
L 10.984375 69.390625 
L 28.421875 72.90625 
L 38.28125 72.90625 
L 38.28125 8.296875 
L 54.390625 8.296875 
L 54.390625 0 
L 12.40625 0 
z
" id="DejaVuSans-31"/>
       <path d="M 8.203125 72.90625 
L 55.078125 72.90625 
L 55.078125 68.703125 
L 28.609375 0 
L 18.3125 0 
L 43.21875 64.59375 
L 8.203125 64.59375 
z
" id="DejaVuSans-37"/>
       <path d="M 4.890625 31.390625 
L 31.203125 31.390625 
L 31.203125 23.390625 
L 4.890625 23.390625 
z
" id="DejaVuSans-2d"/>
       <path d="M 33.015625 40.375 
Q 26.375 40.375 22.484375 35.828125 
Q 18.609375 31.296875 18.609375 23.390625 
Q 18.609375 15.53125 22.484375 10.953125 
Q 26.375 6.390625 33.015625 6.390625 
Q 39.65625 6.390625 43.53125 10.953125 
Q 47.40625 15.53125 47.40625 23.390625 
Q 47.40625 31.296875 43.53125 35.828125 
Q 39.65625 40.375 33.015625 40.375 
z
M 52.59375 71.296875 
L 52.59375 62.3125 
Q 48.875 64.0625 45.09375 64.984375 
Q 41.3125 65.921875 37.59375 65.921875 
Q 27.828125 65.921875 22.671875 59.328125 
Q 17.53125 52.734375 16.796875 39.40625 
Q 19.671875 43.65625 24.015625 45.921875 
Q 28.375 48.1875 33.59375 48.1875 
Q 44.578125 48.1875 50.953125 41.515625 
Q 57.328125 34.859375 57.328125 23.390625 
Q 57.328125 12.15625 50.6875 5.359375 
Q 44.046875 -1.421875 33.015625 -1.421875 
Q 20.359375 -1.421875 13.671875 8.265625 
Q 6.984375 17.96875 6.984375 36.375 
Q 6.984375 53.65625 15.1875 63.9375 
Q 23.390625 74.21875 37.203125 74.21875 
Q 40.921875 74.21875 44.703125 73.484375 
Q 48.484375 72.75 52.59375 71.296875 
z
" id="DejaVuSans-36"/>
       <path d="M 37.796875 64.3125 
L 12.890625 25.390625 
L 37.796875 25.390625 
z
M 35.203125 72.90625 
L 47.609375 72.90625 
L 47.609375 25.390625 
L 58.015625 25.390625 
L 58.015625 17.1875 
L 47.609375 17.1875 
L 47.609375 0 
L 37.796875 0 
L 37.796875 17.1875 
L 4.890625 17.1875 
L 4.890625 26.703125 
z
" id="DejaVuSans-34"/>
       <path id="DejaVuSans-20"/>
       <path d="M 10.984375 1.515625 
L 10.984375 10.5 
Q 14.703125 8.734375 18.5 7.8125 
Q 22.3125 6.890625 25.984375 6.890625 
Q 35.75 6.890625 40.890625 13.453125 
Q 46.046875 20.015625 46.78125 33.40625 
Q 43.953125 29.203125 39.59375 26.953125 
Q 35.25 24.703125 29.984375 24.703125 
Q 19.046875 24.703125 12.671875 31.3125 
Q 6.296875 37.9375 6.296875 49.421875 
Q 6.296875 60.640625 12.9375 67.421875 
Q 19.578125 74.21875 30.609375 74.21875 
Q 43.265625 74.21875 49.921875 64.515625 
Q 56.59375 54.828125 56.59375 36.375 
Q 56.59375 19.140625 48.40625 8.859375 
Q 40.234375 -1.421875 26.421875 -1.421875 
Q 22.703125 -1.421875 18.890625 -0.6875 
Q 15.09375 0.046875 10.984375 1.515625 
z
M 30.609375 32.421875 
Q 37.25 32.421875 41.125 36.953125 
Q 45.015625 41.5 45.015625 49.421875 
Q 45.015625 57.28125 41.125 61.84375 
Q 37.25 66.40625 30.609375 66.40625 
Q 23.96875 66.40625 20.09375 61.84375 
Q 16.21875 57.28125 16.21875 49.421875 
Q 16.21875 41.5 20.09375 36.953125 
Q 23.96875 32.421875 30.609375 32.421875 
z
" id="DejaVuSans-39"/>
       <path d="M 11.71875 12.40625 
L 22.015625 12.40625 
L 22.015625 0 
L 11.71875 0 
z
M 11.71875 51.703125 
L 22.015625 51.703125 
L 22.015625 39.3125 
L 11.71875 39.3125 
z
" id="DejaVuSans-3a"/>
       <path d="M 10.796875 72.90625 
L 49.515625 72.90625 
L 49.515625 64.59375 
L 19.828125 64.59375 
L 19.828125 46.734375 
Q 21.96875 47.46875 24.109375 47.828125 
Q 26.265625 48.1875 28.421875 48.1875 
Q 40.625 48.1875 47.75 41.5 
Q 54.890625 34.8125 54.890625 23.390625 
Q 54.890625 11.625 47.5625 5.09375 
Q 40.234375 -1.421875 26.90625 -1.421875 
Q 22.3125 -1.421875 17.546875 -0.640625 
Q 12.796875 0.140625 7.71875 1.703125 
L 7.71875 11.625 
Q 12.109375 9.234375 16.796875 8.0625 
Q 21.484375 6.890625 26.703125 6.890625 
Q 35.15625 6.890625 40.078125 11.328125 
Q 45.015625 15.765625 45.015625 23.390625 
Q 45.015625 31 40.078125 35.4375 
Q 35.15625 39.890625 26.703125 39.890625 
Q 22.75 39.890625 18.8125 39.015625 
Q 14.890625 38.140625 10.796875 36.28125 
z
" id="DejaVuSans-35"/>
      </defs>
      <g transform="translate(12.991032 374.267565)rotate(-30)scale(0.1 -0.1)">
       <use xlink:href="#DejaVuSans-32"/>
       <use x="63.623047" xlink:href="#DejaVuSans-30"/>
       <use x="127.246094" xlink:href="#DejaVuSans-31"/>
       <use x="190.869141" xlink:href="#DejaVuSans-37"/>
       <use x="254.492188" xlink:href="#DejaVuSans-2d"/>
       <use x="290.576172" xlink:href="#DejaVuSans-30"/>
       <use x="354.199219" xlink:href="#DejaVuSans-36"/>
       <use x="417.822266" xlink:href="#DejaVuSans-2d"/>
       <use x="453.90625" xlink:href="#DejaVuSans-31"/>
       <use x="517.529297" xlink:href="#DejaVuSans-34"/>
       <use x="581.152344" xlink:href="#DejaVuSans-20"/>
       <use x="612.939453" xlink:href="#DejaVuSans-30"/>
       <use x="676.5625" xlink:href="#DejaVuSans-39"/>
       <use x="740.185547" xlink:href="#DejaVuSans-3a"/>
       <use x="773.876953" xlink:href="#DejaVuSans-35"/>
       <use x="837.5" xlink:href="#DejaVuSans-31"/>
       <use x="901.123047" xlink:href="#DejaVuSans-3a"/>
       <use x="934.814453" xlink:href="#DejaVuSans-31"/>
       <use x="998.4375" xlink:href="#DejaVuSans-37"/>
      </g>
     </g>
    </g>
    <g id="xtick_2">
     <g id="line2d_2">
      <g>
       <use style="stroke:#000000;stroke-width:0.8;" x="104.838095" xlink:href="#m9d75e52b84" y="307.584"/>
      </g>
     </g>
     <g id="text_2">
      <!-- 2017-06-14 10:16:37 -->
      <defs>
       <path d="M 40.578125 39.3125 
Q 47.65625 37.796875 51.625 33 
Q 55.609375 28.21875 55.609375 21.1875 
Q 55.609375 10.40625 48.1875 4.484375 
Q 40.765625 -1.421875 27.09375 -1.421875 
Q 22.515625 -1.421875 17.65625 -0.515625 
Q 12.796875 0.390625 7.625 2.203125 
L 7.625 11.71875 
Q 11.71875 9.328125 16.59375 8.109375 
Q 21.484375 6.890625 26.8125 6.890625 
Q 36.078125 6.890625 40.9375 10.546875 
Q 45.796875 14.203125 45.796875 21.1875 
Q 45.796875 27.640625 41.28125 31.265625 
Q 36.765625 34.90625 28.71875 34.90625 
L 20.21875 34.90625 
L 20.21875 43.015625 
L 29.109375 43.015625 
Q 36.375 43.015625 40.234375 45.921875 
Q 44.09375 48.828125 44.09375 54.296875 
Q 44.09375 59.90625 40.109375 62.90625 
Q 36.140625 65.921875 28.71875 65.921875 
Q 24.65625 65.921875 20.015625 65.03125 
Q 15.375 64.15625 9.8125 62.3125 
L 9.8125 71.09375 
Q 15.4375 72.65625 20.34375 73.4375 
Q 25.25 74.21875 29.59375 74.21875 
Q 40.828125 74.21875 47.359375 69.109375 
Q 53.90625 64.015625 53.90625 55.328125 
Q 53.90625 49.265625 50.4375 45.09375 
Q 46.96875 40.921875 40.578125 39.3125 
z
" id="DejaVuSans-33"/>
      </defs>
      <g transform="translate(60.229127 374.267565)rotate(-30)scale(0.1 -0.1)">
       <use xlink:href="#DejaVuSans-32"/>
       <use x="63.623047" xlink:href="#DejaVuSans-30"/>
       <use x="127.246094" xlink:href="#DejaVuSans-31"/>
       <use x="190.869141" xlink:href="#DejaVuSans-37"/>
       <use x="254.492188" xlink:href="#DejaVuSans-2d"/>
       <use x="290.576172" xlink:href="#DejaVuSans-30"/>
       <use x="354.199219" xlink:href="#DejaVuSans-36"/>
       <use x="417.822266" xlink:href="#DejaVuSans-2d"/>
       <use x="453.90625" xlink:href="#DejaVuSans-31"/>
       <use x="517.529297" xlink:href="#DejaVuSans-34"/>
       <use x="581.152344" xlink:href="#DejaVuSans-20"/>
       <use x="612.939453" xlink:href="#DejaVuSans-31"/>
       <use x="676.5625" xlink:href="#DejaVuSans-30"/>
       <use x="740.185547" xlink:href="#DejaVuSans-3a"/>
       <use x="773.876953" xlink:href="#DejaVuSans-31"/>
       <use x="837.5" xlink:href="#DejaVuSans-36"/>
       <use x="901.123047" xlink:href="#DejaVuSans-3a"/>
       <use x="934.814453" xlink:href="#DejaVuSans-33"/>
       <use x="998.4375" xlink:href="#DejaVuSans-37"/>
      </g>
     </g>
    </g>
    <g id="xtick_3">
     <g id="line2d_3">
      <g>
       <use style="stroke:#000000;stroke-width:0.8;" x="152.07619" xlink:href="#m9d75e52b84" y="307.584"/>
      </g>
     </g>
     <g id="text_3">
      <!-- 2017-06-14 10:41:43 -->
      <g transform="translate(107.467223 374.267565)rotate(-30)scale(0.1 -0.1)">
       <use xlink:href="#DejaVuSans-32"/>
       <use x="63.623047" xlink:href="#DejaVuSans-30"/>
       <use x="127.246094" xlink:href="#DejaVuSans-31"/>
       <use x="190.869141" xlink:href="#DejaVuSans-37"/>
       <use x="254.492188" xlink:href="#DejaVuSans-2d"/>
       <use x="290.576172" xlink:href="#DejaVuSans-30"/>
       <use x="354.199219" xlink:href="#DejaVuSans-36"/>
       <use x="417.822266" xlink:href="#DejaVuSans-2d"/>
       <use x="453.90625" xlink:href="#DejaVuSans-31"/>
       <use x="517.529297" xlink:href="#DejaVuSans-34"/>
       <use x="581.152344" xlink:href="#DejaVuSans-20"/>
       <use x="612.939453" xlink:href="#DejaVuSans-31"/>
       <use x="676.5625" xlink:href="#DejaVuSans-30"/>
       <use x="740.185547" xlink:href="#DejaVuSans-3a"/>
       <use x="773.876953" xlink:href="#DejaVuSans-34"/>
       <use x="837.5" xlink:href="#DejaVuSans-31"/>
       <use x="901.123047" xlink:href="#DejaVuSans-3a"/>
       <use x="934.814453" xlink:href="#DejaVuSans-34"/>
       <use x="998.4375" xlink:href="#DejaVuSans-33"/>
      </g>
     </g>
    </g>
    <g id="xtick_4">
     <g id="line2d_4">
      <g>
       <use style="stroke:#000000;stroke-width:0.8;" x="199.314286" xlink:href="#m9d75e52b84" y="307.584"/>
      </g>
     </g>
     <g id="text_4">
      <!-- 2017-06-14 11:07:12 -->
      <g transform="translate(154.705318 374.267565)rotate(-30)scale(0.1 -0.1)">
       <use xlink:href="#DejaVuSans-32"/>
       <use x="63.623047" xlink:href="#DejaVuSans-30"/>
       <use x="127.246094" xlink:href="#DejaVuSans-31"/>
       <use x="190.869141" xlink:href="#DejaVuSans-37"/>
       <use x="254.492188" xlink:href="#DejaVuSans-2d"/>
       <use x="290.576172" xlink:href="#DejaVuSans-30"/>
       <use x="354.199219" xlink:href="#DejaVuSans-36"/>
       <use x="417.822266" xlink:href="#DejaVuSans-2d"/>
       <use x="453.90625" xlink:href="#DejaVuSans-31"/>
       <use x="517.529297" xlink:href="#DejaVuSans-34"/>
       <use x="581.152344" xlink:href="#DejaVuSans-20"/>
       <use x="612.939453" xlink:href="#DejaVuSans-31"/>
       <use x="676.5625" xlink:href="#DejaVuSans-31"/>
       <use x="740.185547" xlink:href="#DejaVuSans-3a"/>
       <use x="773.876953" xlink:href="#DejaVuSans-30"/>
       <use x="837.5" xlink:href="#DejaVuSans-37"/>
       <use x="901.123047" xlink:href="#DejaVuSans-3a"/>
       <use x="934.814453" xlink:href="#DejaVuSans-31"/>
       <use x="998.4375" xlink:href="#DejaVuSans-32"/>
      </g>
     </g>
    </g>
    <g id="xtick_5">
     <g id="line2d_5">
      <g>
       <use style="stroke:#000000;stroke-width:0.8;" x="246.552381" xlink:href="#m9d75e52b84" y="307.584"/>
      </g>
     </g>
     <g id="text_5">
      <!-- 2017-06-14 11:32:41 -->
      <g transform="translate(201.943413 374.267565)rotate(-30)scale(0.1 -0.1)">
       <use xlink:href="#DejaVuSans-32"/>
       <use x="63.623047" xlink:href="#DejaVuSans-30"/>
       <use x="127.246094" xlink:href="#DejaVuSans-31"/>
       <use x="190.869141" xlink:href="#DejaVuSans-37"/>
       <use x="254.492188" xlink:href="#DejaVuSans-2d"/>
       <use x="290.576172" xlink:href="#DejaVuSans-30"/>
       <use x="354.199219" xlink:href="#DejaVuSans-36"/>
       <use x="417.822266" xlink:href="#DejaVuSans-2d"/>
       <use x="453.90625" xlink:href="#DejaVuSans-31"/>
       <use x="517.529297" xlink:href="#DejaVuSans-34"/>
       <use x="581.152344" xlink:href="#DejaVuSans-20"/>
       <use x="612.939453" xlink:href="#DejaVuSans-31"/>
       <use x="676.5625" xlink:href="#DejaVuSans-31"/>
       <use x="740.185547" xlink:href="#DejaVuSans-3a"/>
       <use x="773.876953" xlink:href="#DejaVuSans-33"/>
       <use x="837.5" xlink:href="#DejaVuSans-32"/>
       <use x="901.123047" xlink:href="#DejaVuSans-3a"/>
       <use x="934.814453" xlink:href="#DejaVuSans-34"/>
       <use x="998.4375" xlink:href="#DejaVuSans-31"/>
      </g>
     </g>
    </g>
    <g id="xtick_6">
     <g id="line2d_6">
      <g>
       <use style="stroke:#000000;stroke-width:0.8;" x="293.790476" xlink:href="#m9d75e52b84" y="307.584"/>
      </g>
     </g>
     <g id="text_6">
      <!-- 2017-06-14 11:59:02 -->
      <g transform="translate(249.181508 374.267565)rotate(-30)scale(0.1 -0.1)">
       <use xlink:href="#DejaVuSans-32"/>
       <use x="63.623047" xlink:href="#DejaVuSans-30"/>
       <use x="127.246094" xlink:href="#DejaVuSans-31"/>
       <use x="190.869141" xlink:href="#DejaVuSans-37"/>
       <use x="254.492188" xlink:href="#DejaVuSans-2d"/>
       <use x="290.576172" xlink:href="#DejaVuSans-30"/>
       <use x="354.199219" xlink:href="#DejaVuSans-36"/>
       <use x="417.822266" xlink:href="#DejaVuSans-2d"/>
       <use x="453.90625" xlink:href="#DejaVuSans-31"/>
       <use x="517.529297" xlink:href="#DejaVuSans-34"/>
       <use x="581.152344" xlink:href="#DejaVuSans-20"/>
       <use x="612.939453" xlink:href="#DejaVuSans-31"/>
       <use x="676.5625" xlink:href="#DejaVuSans-31"/>
       <use x="740.185547" xlink:href="#DejaVuSans-3a"/>
       <use x="773.876953" xlink:href="#DejaVuSans-35"/>
       <use x="837.5" xlink:href="#DejaVuSans-39"/>
       <use x="901.123047" xlink:href="#DejaVuSans-3a"/>
       <use x="934.814453" xlink:href="#DejaVuSans-30"/>
       <use x="998.4375" xlink:href="#DejaVuSans-32"/>
      </g>
     </g>
    </g>
    <g id="xtick_7">
     <g id="line2d_7">
      <g>
       <use style="stroke:#000000;stroke-width:0.8;" x="341.028571" xlink:href="#m9d75e52b84" y="307.584"/>
      </g>
     </g>
     <g id="text_7">
      <!-- 2017-06-14 12:24:44 -->
      <g transform="translate(296.419604 374.267565)rotate(-30)scale(0.1 -0.1)">
       <use xlink:href="#DejaVuSans-32"/>
       <use x="63.623047" xlink:href="#DejaVuSans-30"/>
       <use x="127.246094" xlink:href="#DejaVuSans-31"/>
       <use x="190.869141" xlink:href="#DejaVuSans-37"/>
       <use x="254.492188" xlink:href="#DejaVuSans-2d"/>
       <use x="290.576172" xlink:href="#DejaVuSans-30"/>
       <use x="354.199219" xlink:href="#DejaVuSans-36"/>
       <use x="417.822266" xlink:href="#DejaVuSans-2d"/>
       <use x="453.90625" xlink:href="#DejaVuSans-31"/>
       <use x="517.529297" xlink:href="#DejaVuSans-34"/>
       <use x="581.152344" xlink:href="#DejaVuSans-20"/>
       <use x="612.939453" xlink:href="#DejaVuSans-31"/>
       <use x="676.5625" xlink:href="#DejaVuSans-32"/>
       <use x="740.185547" xlink:href="#DejaVuSans-3a"/>
       <use x="773.876953" xlink:href="#DejaVuSans-32"/>
       <use x="837.5" xlink:href="#DejaVuSans-34"/>
       <use x="901.123047" xlink:href="#DejaVuSans-3a"/>
       <use x="934.814453" xlink:href="#DejaVuSans-34"/>
       <use x="998.4375" xlink:href="#DejaVuSans-34"/>
      </g>
     </g>
    </g>
    <g id="xtick_8">
     <g id="line2d_8">
      <g>
       <use style="stroke:#000000;stroke-width:0.8;" x="388.266667" xlink:href="#m9d75e52b84" y="307.584"/>
      </g>
     </g>
     <g id="text_8">
      <!-- 2017-06-14 12:58:23 -->
      <defs>
       <path d="M 31.78125 34.625 
Q 24.75 34.625 20.71875 30.859375 
Q 16.703125 27.09375 16.703125 20.515625 
Q 16.703125 13.921875 20.71875 10.15625 
Q 24.75 6.390625 31.78125 6.390625 
Q 38.8125 6.390625 42.859375 10.171875 
Q 46.921875 13.96875 46.921875 20.515625 
Q 46.921875 27.09375 42.890625 30.859375 
Q 38.875 34.625 31.78125 34.625 
z
M 21.921875 38.8125 
Q 15.578125 40.375 12.03125 44.71875 
Q 8.5 49.078125 8.5 55.328125 
Q 8.5 64.0625 14.71875 69.140625 
Q 20.953125 74.21875 31.78125 74.21875 
Q 42.671875 74.21875 48.875 69.140625 
Q 55.078125 64.0625 55.078125 55.328125 
Q 55.078125 49.078125 51.53125 44.71875 
Q 48 40.375 41.703125 38.8125 
Q 48.828125 37.15625 52.796875 32.3125 
Q 56.78125 27.484375 56.78125 20.515625 
Q 56.78125 9.90625 50.3125 4.234375 
Q 43.84375 -1.421875 31.78125 -1.421875 
Q 19.734375 -1.421875 13.25 4.234375 
Q 6.78125 9.90625 6.78125 20.515625 
Q 6.78125 27.484375 10.78125 32.3125 
Q 14.796875 37.15625 21.921875 38.8125 
z
M 18.3125 54.390625 
Q 18.3125 48.734375 21.84375 45.5625 
Q 25.390625 42.390625 31.78125 42.390625 
Q 38.140625 42.390625 41.71875 45.5625 
Q 45.3125 48.734375 45.3125 54.390625 
Q 45.3125 60.0625 41.71875 63.234375 
Q 38.140625 66.40625 31.78125 66.40625 
Q 25.390625 66.40625 21.84375 63.234375 
Q 18.3125 60.0625 18.3125 54.390625 
z
" id="DejaVuSans-38"/>
      </defs>
      <g transform="translate(343.657699 374.267565)rotate(-30)scale(0.1 -0.1)">
       <use xlink:href="#DejaVuSans-32"/>
       <use x="63.623047" xlink:href="#DejaVuSans-30"/>
       <use x="127.246094" xlink:href="#DejaVuSans-31"/>
       <use x="190.869141" xlink:href="#DejaVuSans-37"/>
       <use x="254.492188" xlink:href="#DejaVuSans-2d"/>
       <use x="290.576172" xlink:href="#DejaVuSans-30"/>
       <use x="354.199219" xlink:href="#DejaVuSans-36"/>
       <use x="417.822266" xlink:href="#DejaVuSans-2d"/>
       <use x="453.90625" xlink:href="#DejaVuSans-31"/>
       <use x="517.529297" xlink:href="#DejaVuSans-34"/>
       <use x="581.152344" xlink:href="#DejaVuSans-20"/>
       <use x="612.939453" xlink:href="#DejaVuSans-31"/>
       <use x="676.5625" xlink:href="#DejaVuSans-32"/>
       <use x="740.185547" xlink:href="#DejaVuSans-3a"/>
       <use x="773.876953" xlink:href="#DejaVuSans-35"/>
       <use x="837.5" xlink:href="#DejaVuSans-38"/>
       <use x="901.123047" xlink:href="#DejaVuSans-3a"/>
       <use x="934.814453" xlink:href="#DejaVuSans-32"/>
       <use x="998.4375" xlink:href="#DejaVuSans-33"/>
      </g>
     </g>
    </g>
    <g id="text_9">
     <!-- Date -->
     <defs>
      <path d="M 19.671875 64.796875 
L 19.671875 8.109375 
L 31.59375 8.109375 
Q 46.6875 8.109375 53.6875 14.9375 
Q 60.6875 21.78125 60.6875 36.53125 
Q 60.6875 51.171875 53.6875 57.984375 
Q 46.6875 64.796875 31.59375 64.796875 
z
M 9.8125 72.90625 
L 30.078125 72.90625 
Q 51.265625 72.90625 61.171875 64.09375 
Q 71.09375 55.28125 71.09375 36.53125 
Q 71.09375 17.671875 61.125 8.828125 
Q 51.171875 0 30.078125 0 
L 9.8125 0 
z
" id="DejaVuSans-44"/>
      <path d="M 34.28125 27.484375 
Q 23.390625 27.484375 19.1875 25 
Q 14.984375 22.515625 14.984375 16.5 
Q 14.984375 11.71875 18.140625 8.90625 
Q 21.296875 6.109375 26.703125 6.109375 
Q 34.1875 6.109375 38.703125 11.40625 
Q 43.21875 16.703125 43.21875 25.484375 
L 43.21875 27.484375 
z
M 52.203125 31.203125 
L 52.203125 0 
L 43.21875 0 
L 43.21875 8.296875 
Q 40.140625 3.328125 35.546875 0.953125 
Q 30.953125 -1.421875 24.3125 -1.421875 
Q 15.921875 -1.421875 10.953125 3.296875 
Q 6 8.015625 6 15.921875 
Q 6 25.140625 12.171875 29.828125 
Q 18.359375 34.515625 30.609375 34.515625 
L 43.21875 34.515625 
L 43.21875 35.40625 
Q 43.21875 41.609375 39.140625 45 
Q 35.0625 48.390625 27.6875 48.390625 
Q 23 48.390625 18.546875 47.265625 
Q 14.109375 46.140625 10.015625 43.890625 
L 10.015625 52.203125 
Q 14.9375 54.109375 19.578125 55.046875 
Q 24.21875 56 28.609375 56 
Q 40.484375 56 46.34375 49.84375 
Q 52.203125 43.703125 52.203125 31.203125 
z
" id="DejaVuSans-61"/>
      <path d="M 18.3125 70.21875 
L 18.3125 54.6875 
L 36.8125 54.6875 
L 36.8125 47.703125 
L 18.3125 47.703125 
L 18.3125 18.015625 
Q 18.3125 11.328125 20.140625 9.421875 
Q 21.96875 7.515625 27.59375 7.515625 
L 36.8125 7.515625 
L 36.8125 0 
L 27.59375 0 
Q 17.1875 0 13.234375 3.875 
Q 9.28125 7.765625 9.28125 18.015625 
L 9.28125 47.703125 
L 2.6875 47.703125 
L 2.6875 54.6875 
L 9.28125 54.6875 
L 9.28125 70.21875 
z
" id="DejaVuSans-74"/>
      <path d="M 56.203125 29.59375 
L 56.203125 25.203125 
L 14.890625 25.203125 
Q 15.484375 15.921875 20.484375 11.0625 
Q 25.484375 6.203125 34.421875 6.203125 
Q 39.59375 6.203125 44.453125 7.46875 
Q 49.3125 8.734375 54.109375 11.28125 
L 54.109375 2.78125 
Q 49.265625 0.734375 44.1875 -0.34375 
Q 39.109375 -1.421875 33.890625 -1.421875 
Q 20.796875 -1.421875 13.15625 6.1875 
Q 5.515625 13.8125 5.515625 26.8125 
Q 5.515625 40.234375 12.765625 48.109375 
Q 20.015625 56 32.328125 56 
Q 43.359375 56 49.78125 48.890625 
Q 56.203125 41.796875 56.203125 29.59375 
z
M 47.21875 32.234375 
Q 47.125 39.59375 43.09375 43.984375 
Q 39.0625 48.390625 32.421875 48.390625 
Q 24.90625 48.390625 20.390625 44.140625 
Q 15.875 39.890625 15.1875 32.171875 
z
" id="DejaVuSans-65"/>
     </defs>
     <g transform="translate(224.209219 387.667065)scale(0.1 -0.1)">
      <use xlink:href="#DejaVuSans-44"/>
      <use x="77.001953" xlink:href="#DejaVuSans-61"/>
      <use x="138.28125" xlink:href="#DejaVuSans-74"/>
      <use x="177.490234" xlink:href="#DejaVuSans-65"/>
     </g>
    </g>
   </g>
   <g id="matplotlib.axis_2">
    <g id="ytick_1">
     <g id="line2d_9">
      <defs>
       <path d="M 0 0 
L -3.5 0 
" id="me8b37682ee" style="stroke:#000000;stroke-width:0.8;"/>
      </defs>
      <g>
       <use style="stroke:#000000;stroke-width:0.8;" x="57.6" xlink:href="#me8b37682ee" y="298.737874"/>
      </g>
     </g>
     <g id="text_10">
      <!-- 982 -->
      <g transform="translate(31.5125 302.537093)scale(0.1 -0.1)">
       <use xlink:href="#DejaVuSans-39"/>
       <use x="63.623047" xlink:href="#DejaVuSans-38"/>
       <use x="127.246094" xlink:href="#DejaVuSans-32"/>
      </g>
     </g>
    </g>
    <g id="ytick_2">
     <g id="line2d_10">
      <g>
       <use style="stroke:#000000;stroke-width:0.8;" x="57.6" xlink:href="#me8b37682ee" y="242.564936"/>
      </g>
     </g>
     <g id="text_11">
      <!-- 984 -->
      <g transform="translate(31.5125 246.364155)scale(0.1 -0.1)">
       <use xlink:href="#DejaVuSans-39"/>
       <use x="63.623047" xlink:href="#DejaVuSans-38"/>
       <use x="127.246094" xlink:href="#DejaVuSans-34"/>
      </g>
     </g>
    </g>
    <g id="ytick_3">
     <g id="line2d_11">
      <g>
       <use style="stroke:#000000;stroke-width:0.8;" x="57.6" xlink:href="#me8b37682ee" y="186.391998"/>
      </g>
     </g>
     <g id="text_12">
      <!-- 986 -->
      <g transform="translate(31.5125 190.191217)scale(0.1 -0.1)">
       <use xlink:href="#DejaVuSans-39"/>
       <use x="63.623047" xlink:href="#DejaVuSans-38"/>
       <use x="127.246094" xlink:href="#DejaVuSans-36"/>
      </g>
     </g>
    </g>
    <g id="ytick_4">
     <g id="line2d_12">
      <g>
       <use style="stroke:#000000;stroke-width:0.8;" x="57.6" xlink:href="#me8b37682ee" y="130.219061"/>
      </g>
     </g>
     <g id="text_13">
      <!-- 988 -->
      <g transform="translate(31.5125 134.018279)scale(0.1 -0.1)">
       <use xlink:href="#DejaVuSans-39"/>
       <use x="63.623047" xlink:href="#DejaVuSans-38"/>
       <use x="127.246094" xlink:href="#DejaVuSans-38"/>
      </g>
     </g>
    </g>
    <g id="ytick_5">
     <g id="line2d_13">
      <g>
       <use style="stroke:#000000;stroke-width:0.8;" x="57.6" xlink:href="#me8b37682ee" y="74.046123"/>
      </g>
     </g>
     <g id="text_14">
      <!-- 990 -->
      <g transform="translate(31.5125 77.845341)scale(0.1 -0.1)">
       <use xlink:href="#DejaVuSans-39"/>
       <use x="63.623047" xlink:href="#DejaVuSans-39"/>
       <use x="127.246094" xlink:href="#DejaVuSans-30"/>
      </g>
     </g>
    </g>
    <g id="text_15">
     <!-- Price -->
     <defs>
      <path d="M 19.671875 64.796875 
L 19.671875 37.40625 
L 32.078125 37.40625 
Q 38.96875 37.40625 42.71875 40.96875 
Q 46.484375 44.53125 46.484375 51.125 
Q 46.484375 57.671875 42.71875 61.234375 
Q 38.96875 64.796875 32.078125 64.796875 
z
M 9.8125 72.90625 
L 32.078125 72.90625 
Q 44.34375 72.90625 50.609375 67.359375 
Q 56.890625 61.8125 56.890625 51.125 
Q 56.890625 40.328125 50.609375 34.8125 
Q 44.34375 29.296875 32.078125 29.296875 
L 19.671875 29.296875 
L 19.671875 0 
L 9.8125 0 
z
" id="DejaVuSans-50"/>
      <path d="M 41.109375 46.296875 
Q 39.59375 47.171875 37.8125 47.578125 
Q 36.03125 48 33.890625 48 
Q 26.265625 48 22.1875 43.046875 
Q 18.109375 38.09375 18.109375 28.8125 
L 18.109375 0 
L 9.078125 0 
L 9.078125 54.6875 
L 18.109375 54.6875 
L 18.109375 46.1875 
Q 20.953125 51.171875 25.484375 53.578125 
Q 30.03125 56 36.53125 56 
Q 37.453125 56 38.578125 55.875 
Q 39.703125 55.765625 41.0625 55.515625 
z
" id="DejaVuSans-72"/>
      <path d="M 9.421875 54.6875 
L 18.40625 54.6875 
L 18.40625 0 
L 9.421875 0 
z
M 9.421875 75.984375 
L 18.40625 75.984375 
L 18.40625 64.59375 
L 9.421875 64.59375 
z
" id="DejaVuSans-69"/>
      <path d="M 48.78125 52.59375 
L 48.78125 44.1875 
Q 44.96875 46.296875 41.140625 47.34375 
Q 37.3125 48.390625 33.40625 48.390625 
Q 24.65625 48.390625 19.8125 42.84375 
Q 14.984375 37.3125 14.984375 27.296875 
Q 14.984375 17.28125 19.8125 11.734375 
Q 24.65625 6.203125 33.40625 6.203125 
Q 37.3125 6.203125 41.140625 7.25 
Q 44.96875 8.296875 48.78125 10.40625 
L 48.78125 2.09375 
Q 45.015625 0.34375 40.984375 -0.53125 
Q 36.96875 -1.421875 32.421875 -1.421875 
Q 20.0625 -1.421875 12.78125 6.34375 
Q 5.515625 14.109375 5.515625 27.296875 
Q 5.515625 40.671875 12.859375 48.328125 
Q 20.21875 56 33.015625 56 
Q 37.15625 56 41.109375 55.140625 
Q 45.0625 54.296875 48.78125 52.59375 
z
" id="DejaVuSans-63"/>
     </defs>
     <g transform="translate(25.432812 186.812375)rotate(-90)scale(0.1 -0.1)">
      <use xlink:href="#DejaVuSans-50"/>
      <use x="60.287109" xlink:href="#DejaVuSans-72"/>
      <use x="101.400391" xlink:href="#DejaVuSans-69"/>
      <use x="129.183594" xlink:href="#DejaVuSans-63"/>
      <use x="184.164062" xlink:href="#DejaVuSans-65"/>
     </g>
    </g>
   </g>
   <g id="line2d_14">
    <path clip-path="url(#p6b314b0a2f)" d="M 57.6 186.672863 
L 59.489524 186.111134 
L 61.379048 186.953728 
L 63.268571 150.441318 
L 65.158095 123.478308 
L 67.047619 140.330189 
L 68.937143 90.05541 
L 70.826667 107.188156 
L 72.71619 74.046123 
L 74.605714 102.694321 
L 76.495238 99.04308 
L 78.384762 125.725225 
L 80.274286 138.364137 
L 82.16381 120.950526 
L 84.053333 122.635714 
L 85.942857 112.80545 
L 87.832381 107.188156 
L 89.721905 132.465978 
L 91.611429 108.311615 
L 93.500952 148.475265 
L 95.390476 147.351807 
L 97.28 127.129549 
L 99.169524 158.024665 
L 101.059048 186.391998 
L 102.948571 227.679108 
L 104.838095 214.478467 
L 106.727619 195.379668 
L 108.617143 197.626586 
L 110.506667 169.540117 
L 112.39619 190.885833 
L 114.285714 192.571022 
L 116.175238 171.225305 
L 118.064762 170.382711 
L 119.954286 140.891919 
L 121.84381 159.990718 
L 123.733333 151.564777 
L 125.622857 157.462935 
L 127.512381 126.00609 
L 129.401905 158.586394 
L 131.291429 147.913536 
L 133.180952 135.55549 
L 135.070476 130.78079 
L 136.96 150.160453 
L 138.849524 172.348764 
L 140.739048 198.188315 
L 142.628571 153.53083 
L 144.518095 151.564777 
L 146.407619 151.845642 
L 148.297143 131.904249 
L 150.186667 143.138836 
L 152.07619 150.441318 
L 153.965714 155.777747 
L 155.855238 155.777747 
L 157.744762 140.330189 
L 159.634286 147.913536 
L 161.52381 179.089516 
L 163.413333 151.845642 
L 165.302857 155.777747 
L 167.192381 150.160453 
L 169.081905 123.197443 
L 170.971429 136.398084 
L 172.860952 136.678948 
L 174.750476 140.891919 
L 176.64 147.632671 
L 178.529524 177.404328 
L 180.419048 201.839556 
L 182.308571 201.558692 
L 184.198095 180.774705 
L 186.087619 170.382711 
L 187.977143 191.166698 
L 189.866667 174.033952 
L 191.75619 190.043239 
L 193.645714 208.018579 
L 195.535238 207.737715 
L 197.424762 195.941398 
L 199.314286 203.805609 
L 201.20381 214.478467 
L 203.093333 206.052527 
L 204.982857 204.367339 
L 206.872381 200.435233 
L 208.761905 214.478467 
L 210.651429 216.163655 
L 212.540952 246.497042 
L 214.430476 247.339636 
L 216.32 211.950685 
L 218.209524 210.546362 
L 220.099048 188.358051 
L 221.988571 197.626586 
L 223.878095 186.953728 
L 225.767619 189.200645 
L 227.657143 190.324104 
L 229.546667 200.435233 
L 231.43619 201.558692 
L 233.325714 201.277827 
L 235.215238 205.209933 
L 237.104762 202.401286 
L 238.994286 214.478467 
L 240.88381 207.175985 
L 242.773333 219.534032 
L 244.662857 219.534032 
L 246.552381 222.904408 
L 248.441905 225.99392 
L 250.331429 223.185273 
L 252.220952 208.580309 
L 254.110476 218.691438 
L 256 214.759332 
L 257.889524 211.950685 
L 259.779048 210.546362 
L 261.668571 207.45685 
L 263.558095 216.725385 
L 265.447619 215.321061 
L 267.337143 209.142038 
L 269.226667 215.321061 
L 271.11619 216.163655 
L 273.005714 222.342679 
L 274.895238 220.095761 
L 276.784762 201.558692 
L 278.674286 195.098804 
L 280.56381 202.120421 
L 282.453333 200.435233 
L 284.342857 200.435233 
L 286.232381 195.379668 
L 288.121905 193.69448 
L 290.011429 190.885833 
L 291.900952 195.941398 
L 293.790476 199.030909 
L 295.68 197.626586 
L 297.569524 191.447563 
L 299.459048 198.46918 
L 301.348571 191.447563 
L 303.238095 180.212975 
L 305.127619 177.966058 
L 307.017143 184.425946 
L 308.906667 192.009292 
L 310.79619 178.527787 
L 312.685714 197.626586 
L 314.575238 188.358051 
L 316.464762 204.367339 
L 318.354286 233.296402 
L 320.24381 234.138996 
L 322.133333 217.848844 
L 324.022857 234.700725 
L 327.801905 262.225465 
L 331.580952 272.898323 
L 333.470476 263.348923 
L 335.36 259.978547 
L 337.249524 249.586553 
L 339.139048 253.799524 
L 341.028571 256.327306 
L 342.918095 256.889035 
L 344.807619 245.654448 
L 346.697143 242.845801 
L 348.586667 227.398243 
L 350.47619 216.725385 
L 352.365714 230.768619 
L 354.255238 220.095761 
L 358.034286 207.737715 
L 359.92381 204.367339 
L 361.813333 200.154368 
L 363.702857 202.68215 
L 365.592381 204.648203 
L 367.481905 203.524744 
L 369.371429 203.24388 
L 371.260952 210.265497 
L 373.150476 208.018579 
L 375.04 202.68215 
L 376.929524 224.027867 
L 378.819048 227.679108 
L 380.708571 229.083431 
L 382.598095 212.23155 
L 384.487619 237.228507 
L 386.377143 233.015537 
L 388.266667 233.015537 
L 390.15619 236.105048 
L 392.045714 240.879748 
L 393.935238 235.543319 
L 395.824762 228.521702 
L 397.714286 217.00625 
L 399.60381 202.963015 
L 401.493333 208.018579 
L 403.382857 209.703768 
L 405.272381 203.524744 
L 407.161905 198.750045 
L 409.051429 207.45685 
L 410.940952 200.435233 
L 412.830476 211.388956 
L 414.72 213.355009 
L 414.72 213.355009 
" style="fill:none;stroke:#0000ff;stroke-linecap:square;stroke-width:1.5;"/>
   </g>
   <g id="line2d_15">
    <path clip-path="url(#p6b314b0a2f)" d="M 93.500952 128.196835 
L 95.390476 126.230782 
L 97.28 123.281703 
L 99.169524 121.83525 
L 101.059048 123.632784 
L 102.948571 128.842824 
L 104.838095 132.550237 
L 106.727619 137.81645 
L 112.39619 151.522647 
L 114.285714 156.199044 
L 116.175238 158.474048 
L 118.064762 160.074977 
L 119.954286 161.072047 
L 123.733333 164.877763 
L 125.622857 167.391502 
L 127.512381 167.068508 
L 129.401905 169.582247 
L 131.291429 169.55416 
L 133.180952 168.964344 
L 135.070476 169.146906 
L 136.96 168.753696 
L 138.849524 168.051534 
L 140.739048 166.576995 
L 142.628571 163.529613 
L 146.407619 159.049821 
L 148.297143 157.168027 
L 150.186667 154.780678 
L 152.07619 152.674192 
L 155.855238 151.171566 
L 157.744762 151.14348 
L 159.634286 150.539621 
L 161.52381 151.915858 
L 163.413333 151.634993 
L 165.302857 153.123576 
L 167.192381 152.702279 
L 169.081905 151.466474 
L 170.971429 151.508604 
L 172.860952 151.803512 
L 174.750476 151.340085 
L 176.64 150.104281 
L 178.529524 149.065081 
L 182.308571 153.980213 
L 184.198095 155.426666 
L 186.087619 157.35059 
L 187.977143 159.751983 
L 189.866667 160.931614 
L 191.75619 162.644889 
L 193.645714 165.256931 
L 195.535238 168.627307 
L 197.424762 171.0287 
L 199.314286 172.264505 
L 201.20381 175.396146 
L 203.093333 177.909885 
L 204.982857 180.620229 
L 210.651429 192.360373 
L 214.430476 202.625977 
L 216.32 204.353295 
L 218.209524 204.788636 
L 220.099048 204.128604 
L 223.878095 205.799748 
L 225.767619 205.701446 
L 227.657143 206.515953 
L 229.546667 207.035553 
L 233.325714 206.389564 
L 235.215238 206.852991 
L 238.994286 206.782775 
L 240.88381 206.838948 
L 242.773333 207.597282 
L 244.662857 208.552222 
L 248.441905 209.465033 
L 250.331429 208.299444 
L 252.220952 206.361478 
L 254.110476 206.698515 
L 256 206.909164 
L 257.889524 208.088796 
L 259.779048 208.734784 
L 261.668571 209.759941 
L 265.447619 212.386025 
L 267.337143 212.821366 
L 271.11619 214.253776 
L 274.895238 215.995137 
L 278.674286 214.745289 
L 282.453333 212.919668 
L 284.342857 211.79621 
L 288.121905 208.790957 
L 290.011429 207.906234 
L 291.900952 206.768732 
L 297.569524 204.311166 
L 299.459048 203.861782 
L 301.348571 202.597891 
L 303.238095 200.842487 
L 307.017143 197.738932 
L 308.906667 196.531214 
L 310.79619 194.340469 
L 312.685714 193.21701 
L 314.575238 192.556978 
L 316.464762 193.020405 
L 320.24381 196.264392 
L 322.133333 197.135073 
L 324.022857 199.101126 
L 325.912381 201.839556 
L 333.470476 215.96705 
L 335.36 219.393599 
L 337.249524 221.949468 
L 339.139048 225.067066 
L 342.918095 232.818932 
L 344.807619 235.880357 
L 348.586667 240.865705 
L 350.47619 241.820645 
L 352.365714 243.941173 
L 354.255238 244.727594 
L 356.144762 243.758611 
L 358.034286 242.438547 
L 359.92381 241.764472 
L 361.813333 240.037154 
L 363.702857 237.748107 
L 365.592381 234.869244 
L 367.481905 231.667386 
L 369.371429 228.184664 
L 373.150476 222.932494 
L 375.04 220.587274 
L 378.819048 217.666282 
L 380.708571 216.276001 
L 382.598095 214.604856 
L 384.487619 214.323992 
L 386.377143 214.604856 
L 388.266667 215.419364 
L 390.15619 215.686185 
L 395.824762 218.845913 
L 397.714286 219.477859 
L 399.60381 219.618291 
L 403.382857 220.137891 
L 405.272381 220.137891 
L 410.940952 219.393599 
L 412.830476 219.82894 
L 414.72 219.295297 
L 414.72 219.295297 
" style="fill:none;stroke:#ffd700;stroke-linecap:square;stroke-width:1.5;"/>
   </g>
   <g id="line2d_16">
    <path clip-path="url(#p6b314b0a2f)" d="M 93.500952 65.092951 
L 95.390476 68.583696 
L 97.28 72.964089 
L 99.169524 77.975551 
L 101.059048 72.49398 
L 102.948571 59.705561 
L 104.838095 53.568 
L 106.727619 56.746646 
L 108.617143 58.42276 
L 110.506667 68.884203 
L 112.39619 73.896034 
L 114.285714 80.642898 
L 116.175238 84.049809 
L 118.064762 86.095971 
L 119.954286 88.795345 
L 121.84381 92.950812 
L 123.733333 98.690629 
L 125.622857 106.851806 
L 127.512381 105.68124 
L 129.401905 114.535702 
L 131.291429 114.461716 
L 133.180952 112.632433 
L 135.070476 113.364873 
L 136.96 112.532411 
L 138.849524 112.409993 
L 140.739048 116.282696 
L 142.628571 118.328021 
L 144.518095 118.44888 
L 146.407619 119.562592 
L 148.297143 116.225427 
L 150.186667 116.644226 
L 152.07619 118.924894 
L 155.855238 119.626468 
L 157.744762 119.558868 
L 159.634286 119.206412 
L 161.52381 118.075451 
L 163.413333 117.895341 
L 165.302857 121.590022 
L 167.192381 121.250991 
L 169.081905 117.390149 
L 170.971429 117.513118 
L 172.860952 118.469227 
L 174.750476 117.65377 
L 176.64 117.881427 
L 178.529524 122.533659 
L 180.419048 115.962936 
L 182.308571 111.990327 
L 184.198095 111.785766 
L 186.087619 114.694416 
L 187.977143 115.10346 
L 189.866667 116.072688 
L 191.75619 116.03169 
L 193.645714 114.585828 
L 195.535238 116.007521 
L 197.424762 118.007028 
L 199.314286 117.333986 
L 201.20381 118.269483 
L 203.093333 119.99894 
L 204.982857 123.104986 
L 206.872381 133.162707 
L 208.761905 140.718718 
L 210.651429 149.872146 
L 214.430476 162.177931 
L 216.32 165.522062 
L 218.209524 165.880912 
L 220.099048 164.548117 
L 221.988571 166.79131 
L 223.878095 170.14459 
L 225.767619 169.866033 
L 227.657143 173.048911 
L 229.546667 174.331364 
L 233.325714 173.514134 
L 235.215238 174.338369 
L 238.994286 174.234396 
L 240.88381 174.291998 
L 242.773333 174.589313 
L 244.662857 175.312419 
L 246.552381 175.208023 
L 248.441905 174.980312 
L 250.331429 177.731542 
L 252.220952 181.912983 
L 254.110476 181.744963 
L 256 181.748575 
L 257.889524 184.422453 
L 259.779048 185.57088 
L 263.558095 192.538822 
L 265.447619 196.518341 
L 267.337143 197.883722 
L 269.226667 199.51841 
L 271.11619 201.470851 
L 273.005714 202.585677 
L 274.895238 204.823699 
L 276.784762 202.448153 
L 278.674286 199.344999 
L 282.453333 195.885984 
L 284.342857 194.572491 
L 286.232381 192.913509 
L 288.121905 191.053829 
L 290.011429 188.443602 
L 291.900952 187.300917 
L 293.790476 186.603075 
L 295.68 185.75728 
L 297.569524 184.035925 
L 299.459048 183.481967 
L 301.348571 182.443005 
L 303.238095 179.286592 
L 305.127619 175.829499 
L 307.017143 174.665594 
L 308.906667 175.044442 
L 310.79619 175.119368 
L 312.685714 178.15845 
L 314.575238 177.885673 
L 316.464762 177.452877 
L 318.354286 170.995529 
L 320.24381 166.828331 
L 322.133333 166.188195 
L 324.022857 163.917671 
L 325.912381 160.449752 
L 327.801905 156.396749 
L 329.691429 152.930201 
L 331.580952 150.038821 
L 333.470476 149.851039 
L 335.36 151.547357 
L 337.249524 153.572927 
L 339.139048 156.860584 
L 341.028571 162.741758 
L 344.807619 177.317515 
L 346.697143 183.582204 
L 348.586667 193.403736 
L 350.47619 197.347286 
L 352.365714 206.753474 
L 354.255238 210.517593 
L 356.144762 207.170152 
L 358.034286 202.625789 
L 359.92381 199.800351 
L 361.813333 194.184938 
L 363.702857 189.176668 
L 365.592381 185.586317 
L 367.481905 183.010774 
L 369.371429 182.048067 
L 373.150476 181.792253 
L 375.04 180.510758 
L 376.929524 182.124816 
L 378.819048 184.770311 
L 380.708571 188.391059 
L 382.598095 190.365404 
L 384.487619 191.366051 
L 390.15619 189.76123 
L 392.045714 188.492656 
L 393.935238 188.394923 
L 395.824762 189.463386 
L 397.714286 190.873113 
L 399.60381 191.387856 
L 403.382857 192.985057 
L 405.272381 192.985057 
L 407.161905 192.105266 
L 409.051429 191.732294 
L 410.940952 190.492033 
L 412.830476 191.736278 
L 414.72 191.133082 
L 414.72 191.133082 
" style="fill:none;stroke:#ff0000;stroke-linecap:square;stroke-width:1.5;"/>
   </g>
   <g id="line2d_17">
    <path clip-path="url(#p6b314b0a2f)" d="M 93.500952 191.300719 
L 95.390476 183.877867 
L 97.28 173.599316 
L 99.169524 165.694948 
L 101.059048 174.771587 
L 102.948571 197.980086 
L 104.838095 211.532475 
L 108.617143 226.253984 
L 110.506667 225.34194 
L 112.39619 229.149261 
L 114.285714 231.75519 
L 118.064762 234.053983 
L 119.954286 233.348748 
L 121.84381 232.928781 
L 123.733333 231.064897 
L 125.622857 227.931199 
L 127.512381 228.455776 
L 129.401905 224.628792 
L 131.291429 224.646605 
L 133.180952 225.296256 
L 135.070476 224.92894 
L 136.96 224.974981 
L 138.849524 223.693076 
L 140.739048 216.871293 
L 142.628571 208.731205 
L 144.518095 204.228856 
L 146.407619 198.537049 
L 148.297143 198.110628 
L 150.186667 192.91713 
L 152.07619 186.423491 
L 155.855238 182.716665 
L 157.744762 182.728091 
L 159.634286 181.87283 
L 161.52381 185.756265 
L 163.413333 185.374645 
L 165.302857 184.65713 
L 167.192381 184.153567 
L 169.081905 185.5428 
L 170.971429 185.50409 
L 172.860952 185.137797 
L 174.750476 185.0264 
L 176.64 182.327134 
L 178.529524 175.596503 
L 180.419048 186.998099 
L 182.308571 195.9701 
L 184.198095 199.067567 
L 186.087619 200.006763 
L 187.977143 204.400505 
L 189.866667 205.790541 
L 191.75619 209.258087 
L 193.645714 215.928033 
L 195.535238 221.247092 
L 197.424762 224.050372 
L 199.314286 227.195023 
L 201.20381 232.522808 
L 203.093333 235.82083 
L 204.982857 238.135472 
L 206.872381 235.80153 
L 208.761905 236.053557 
L 210.651429 234.8486 
L 212.540952 239.439873 
L 214.430476 243.074024 
L 216.32 243.184529 
L 218.209524 243.696359 
L 220.099048 243.70909 
L 221.988571 243.151085 
L 223.878095 241.454907 
L 225.767619 241.536858 
L 227.657143 239.982995 
L 233.325714 239.264994 
L 235.215238 239.367613 
L 238.994286 239.331154 
L 240.88381 239.385898 
L 244.662857 241.792026 
L 246.552381 242.739016 
L 248.441905 243.949753 
L 250.331429 238.867347 
L 252.220952 230.809972 
L 254.110476 231.652068 
L 256 232.069753 
L 257.889524 231.755138 
L 259.779048 231.898689 
L 261.668571 230.559184 
L 263.558095 229.733533 
L 265.447619 228.253709 
L 267.337143 227.75901 
L 269.226667 227.500558 
L 271.11619 227.0367 
L 273.005714 227.635148 
L 274.895238 227.166574 
L 276.784762 228.250143 
L 278.674286 230.145578 
L 282.453333 229.953353 
L 284.342857 229.019928 
L 286.232381 227.617485 
L 288.121905 226.528086 
L 290.011429 227.368865 
L 291.900952 226.236546 
L 293.790476 225.361546 
L 295.68 224.774931 
L 297.569524 224.586406 
L 299.459048 224.241597 
L 301.348571 222.752777 
L 303.238095 222.398381 
L 305.127619 222.737876 
L 307.017143 220.812269 
L 308.906667 218.017986 
L 310.79619 213.56157 
L 312.685714 208.275571 
L 314.575238 207.228284 
L 316.464762 208.587933 
L 318.354286 218.162879 
L 320.24381 225.700453 
L 322.133333 228.081951 
L 324.022857 234.28458 
L 325.912381 243.229361 
L 329.691429 265.044924 
L 331.580952 275.323045 
L 333.470476 282.083061 
L 335.36 287.239842 
L 339.139048 293.273549 
L 341.028571 295.003807 
L 342.918095 295.488 
L 344.807619 294.443198 
L 346.697143 293.26216 
L 348.586667 288.327674 
L 350.47619 286.294003 
L 352.365714 281.128873 
L 354.255238 278.937596 
L 356.144762 280.347071 
L 358.034286 282.251305 
L 359.92381 283.728593 
L 361.813333 285.88937 
L 363.702857 286.319546 
L 365.592381 284.152171 
L 367.481905 280.323999 
L 369.371429 274.321262 
L 373.150476 264.072736 
L 375.04 260.66379 
L 376.929524 256.072567 
L 378.819048 250.562252 
L 380.708571 244.160944 
L 382.598095 238.844309 
L 384.487619 237.281933 
L 386.377143 238.359872 
L 388.266667 240.557369 
L 390.15619 241.611141 
L 392.045714 244.958114 
L 393.935238 247.218505 
L 395.824762 248.228441 
L 399.60381 247.848726 
L 403.382857 247.290725 
L 405.272381 247.290725 
L 407.161905 247.721133 
L 409.051429 247.81324 
L 410.940952 248.295166 
L 414.72 247.457512 
L 414.72 247.457512 
" style="fill:none;stroke:#008000;stroke-linecap:square;stroke-width:1.5;"/>
   </g>
   <g id="patch_3">
    <path d="M 57.6 307.584 
L 57.6 41.472 
" style="fill:none;stroke:#000000;stroke-linecap:square;stroke-linejoin:miter;stroke-width:0.8;"/>
   </g>
   <g id="patch_4">
    <path d="M 414.72 307.584 
L 414.72 41.472 
" style="fill:none;stroke:#000000;stroke-linecap:square;stroke-linejoin:miter;stroke-width:0.8;"/>
   </g>
   <g id="patch_5">
    <path d="M 57.6 307.584 
L 414.72 307.584 
" style="fill:none;stroke:#000000;stroke-linecap:square;stroke-linejoin:miter;stroke-width:0.8;"/>
   </g>
   <g id="patch_6">
    <path d="M 57.6 41.472 
L 414.72 41.472 
" style="fill:none;stroke:#000000;stroke-linecap:square;stroke-linejoin:miter;stroke-width:0.8;"/>
   </g>
   <g id="text_16">
    <!-- $\mathrm{Bollinger Bands\ of\ AMZN\ }$ -->
    <defs>
     <path d="M 19.671875 34.8125 
L 19.671875 8.109375 
L 35.5 8.109375 
Q 43.453125 8.109375 47.28125 11.40625 
Q 51.125 14.703125 51.125 21.484375 
Q 51.125 28.328125 47.28125 31.5625 
Q 43.453125 34.8125 35.5 34.8125 
z
M 19.671875 64.796875 
L 19.671875 42.828125 
L 34.28125 42.828125 
Q 41.5 42.828125 45.03125 45.53125 
Q 48.578125 48.25 48.578125 53.8125 
Q 48.578125 59.328125 45.03125 62.0625 
Q 41.5 64.796875 34.28125 64.796875 
z
M 9.8125 72.90625 
L 35.015625 72.90625 
Q 46.296875 72.90625 52.390625 68.21875 
Q 58.5 63.53125 58.5 54.890625 
Q 58.5 48.1875 55.375 44.234375 
Q 52.25 40.28125 46.1875 39.3125 
Q 53.46875 37.75 57.5 32.78125 
Q 61.53125 27.828125 61.53125 20.40625 
Q 61.53125 10.640625 54.890625 5.3125 
Q 48.25 0 35.984375 0 
L 9.8125 0 
z
" id="DejaVuSans-42"/>
     <path d="M 30.609375 48.390625 
Q 23.390625 48.390625 19.1875 42.75 
Q 14.984375 37.109375 14.984375 27.296875 
Q 14.984375 17.484375 19.15625 11.84375 
Q 23.34375 6.203125 30.609375 6.203125 
Q 37.796875 6.203125 41.984375 11.859375 
Q 46.1875 17.53125 46.1875 27.296875 
Q 46.1875 37.015625 41.984375 42.703125 
Q 37.796875 48.390625 30.609375 48.390625 
z
M 30.609375 56 
Q 42.328125 56 49.015625 48.375 
Q 55.71875 40.765625 55.71875 27.296875 
Q 55.71875 13.875 49.015625 6.21875 
Q 42.328125 -1.421875 30.609375 -1.421875 
Q 18.84375 -1.421875 12.171875 6.21875 
Q 5.515625 13.875 5.515625 27.296875 
Q 5.515625 40.765625 12.171875 48.375 
Q 18.84375 56 30.609375 56 
z
" id="DejaVuSans-6f"/>
     <path d="M 9.421875 75.984375 
L 18.40625 75.984375 
L 18.40625 0 
L 9.421875 0 
z
" id="DejaVuSans-6c"/>
     <path d="M 54.890625 33.015625 
L 54.890625 0 
L 45.90625 0 
L 45.90625 32.71875 
Q 45.90625 40.484375 42.875 44.328125 
Q 39.84375 48.1875 33.796875 48.1875 
Q 26.515625 48.1875 22.3125 43.546875 
Q 18.109375 38.921875 18.109375 30.90625 
L 18.109375 0 
L 9.078125 0 
L 9.078125 54.6875 
L 18.109375 54.6875 
L 18.109375 46.1875 
Q 21.34375 51.125 25.703125 53.5625 
Q 30.078125 56 35.796875 56 
Q 45.21875 56 50.046875 50.171875 
Q 54.890625 44.34375 54.890625 33.015625 
z
" id="DejaVuSans-6e"/>
     <path d="M 45.40625 27.984375 
Q 45.40625 37.75 41.375 43.109375 
Q 37.359375 48.484375 30.078125 48.484375 
Q 22.859375 48.484375 18.828125 43.109375 
Q 14.796875 37.75 14.796875 27.984375 
Q 14.796875 18.265625 18.828125 12.890625 
Q 22.859375 7.515625 30.078125 7.515625 
Q 37.359375 7.515625 41.375 12.890625 
Q 45.40625 18.265625 45.40625 27.984375 
z
M 54.390625 6.78125 
Q 54.390625 -7.171875 48.1875 -13.984375 
Q 42 -20.796875 29.203125 -20.796875 
Q 24.46875 -20.796875 20.265625 -20.09375 
Q 16.0625 -19.390625 12.109375 -17.921875 
L 12.109375 -9.1875 
Q 16.0625 -11.328125 19.921875 -12.34375 
Q 23.78125 -13.375 27.78125 -13.375 
Q 36.625 -13.375 41.015625 -8.765625 
Q 45.40625 -4.15625 45.40625 5.171875 
L 45.40625 9.625 
Q 42.625 4.78125 38.28125 2.390625 
Q 33.9375 0 27.875 0 
Q 17.828125 0 11.671875 7.65625 
Q 5.515625 15.328125 5.515625 27.984375 
Q 5.515625 40.671875 11.671875 48.328125 
Q 17.828125 56 27.875 56 
Q 33.9375 56 38.28125 53.609375 
Q 42.625 51.21875 45.40625 46.390625 
L 45.40625 54.6875 
L 54.390625 54.6875 
z
" id="DejaVuSans-67"/>
     <path d="M 45.40625 46.390625 
L 45.40625 75.984375 
L 54.390625 75.984375 
L 54.390625 0 
L 45.40625 0 
L 45.40625 8.203125 
Q 42.578125 3.328125 38.25 0.953125 
Q 33.9375 -1.421875 27.875 -1.421875 
Q 17.96875 -1.421875 11.734375 6.484375 
Q 5.515625 14.40625 5.515625 27.296875 
Q 5.515625 40.1875 11.734375 48.09375 
Q 17.96875 56 27.875 56 
Q 33.9375 56 38.25 53.625 
Q 42.578125 51.265625 45.40625 46.390625 
z
M 14.796875 27.296875 
Q 14.796875 17.390625 18.875 11.75 
Q 22.953125 6.109375 30.078125 6.109375 
Q 37.203125 6.109375 41.296875 11.75 
Q 45.40625 17.390625 45.40625 27.296875 
Q 45.40625 37.203125 41.296875 42.84375 
Q 37.203125 48.484375 30.078125 48.484375 
Q 22.953125 48.484375 18.875 42.84375 
Q 14.796875 37.203125 14.796875 27.296875 
z
" id="DejaVuSans-64"/>
     <path d="M 44.28125 53.078125 
L 44.28125 44.578125 
Q 40.484375 46.53125 36.375 47.5 
Q 32.28125 48.484375 27.875 48.484375 
Q 21.1875 48.484375 17.84375 46.4375 
Q 14.5 44.390625 14.5 40.28125 
Q 14.5 37.15625 16.890625 35.375 
Q 19.28125 33.59375 26.515625 31.984375 
L 29.59375 31.296875 
Q 39.15625 29.25 43.1875 25.515625 
Q 47.21875 21.78125 47.21875 15.09375 
Q 47.21875 7.46875 41.1875 3.015625 
Q 35.15625 -1.421875 24.609375 -1.421875 
Q 20.21875 -1.421875 15.453125 -0.5625 
Q 10.6875 0.296875 5.421875 2 
L 5.421875 11.28125 
Q 10.40625 8.6875 15.234375 7.390625 
Q 20.0625 6.109375 24.8125 6.109375 
Q 31.15625 6.109375 34.5625 8.28125 
Q 37.984375 10.453125 37.984375 14.40625 
Q 37.984375 18.0625 35.515625 20.015625 
Q 33.0625 21.96875 24.703125 23.78125 
L 21.578125 24.515625 
Q 13.234375 26.265625 9.515625 29.90625 
Q 5.8125 33.546875 5.8125 39.890625 
Q 5.8125 47.609375 11.28125 51.796875 
Q 16.75 56 26.8125 56 
Q 31.78125 56 36.171875 55.265625 
Q 40.578125 54.546875 44.28125 53.078125 
z
" id="DejaVuSans-73"/>
     <path d="M 37.109375 75.984375 
L 37.109375 68.5 
L 28.515625 68.5 
Q 23.6875 68.5 21.796875 66.546875 
Q 19.921875 64.59375 19.921875 59.515625 
L 19.921875 54.6875 
L 34.71875 54.6875 
L 34.71875 47.703125 
L 19.921875 47.703125 
L 19.921875 0 
L 10.890625 0 
L 10.890625 47.703125 
L 2.296875 47.703125 
L 2.296875 54.6875 
L 10.890625 54.6875 
L 10.890625 58.5 
Q 10.890625 67.625 15.140625 71.796875 
Q 19.390625 75.984375 28.609375 75.984375 
z
" id="DejaVuSans-66"/>
     <path d="M 34.1875 63.1875 
L 20.796875 26.90625 
L 47.609375 26.90625 
z
M 28.609375 72.90625 
L 39.796875 72.90625 
L 67.578125 0 
L 57.328125 0 
L 50.6875 18.703125 
L 17.828125 18.703125 
L 11.1875 0 
L 0.78125 0 
z
" id="DejaVuSans-41"/>
     <path d="M 9.8125 72.90625 
L 24.515625 72.90625 
L 43.109375 23.296875 
L 61.8125 72.90625 
L 76.515625 72.90625 
L 76.515625 0 
L 66.890625 0 
L 66.890625 64.015625 
L 48.09375 14.015625 
L 38.1875 14.015625 
L 19.390625 64.015625 
L 19.390625 0 
L 9.8125 0 
z
" id="DejaVuSans-4d"/>
     <path d="M 5.609375 72.90625 
L 62.890625 72.90625 
L 62.890625 65.375 
L 16.796875 8.296875 
L 64.015625 8.296875 
L 64.015625 0 
L 4.5 0 
L 4.5 7.515625 
L 50.59375 64.59375 
L 5.609375 64.59375 
z
" id="DejaVuSans-5a"/>
     <path d="M 9.8125 72.90625 
L 23.09375 72.90625 
L 55.421875 11.921875 
L 55.421875 72.90625 
L 64.984375 72.90625 
L 64.984375 0 
L 51.703125 0 
L 19.390625 60.984375 
L 19.390625 0 
L 9.8125 0 
z
" id="DejaVuSans-4e"/>
    </defs>
    <g transform="translate(161.52 35.472)scale(0.12 -0.12)">
     <use transform="translate(0 0.015625)" xlink:href="#DejaVuSans-42"/>
     <use transform="translate(68.603516 0.015625)" xlink:href="#DejaVuSans-6f"/>
     <use transform="translate(129.785156 0.015625)" xlink:href="#DejaVuSans-6c"/>
     <use transform="translate(157.568359 0.015625)" xlink:href="#DejaVuSans-6c"/>
     <use transform="translate(185.351562 0.015625)" xlink:href="#DejaVuSans-69"/>
     <use transform="translate(213.134766 0.015625)" xlink:href="#DejaVuSans-6e"/>
     <use transform="translate(276.513672 0.015625)" xlink:href="#DejaVuSans-67"/>
     <use transform="translate(339.990234 0.015625)" xlink:href="#DejaVuSans-65"/>
     <use transform="translate(401.513672 0.015625)" xlink:href="#DejaVuSans-72"/>
     <use transform="translate(442.626953 0.015625)" xlink:href="#DejaVuSans-42"/>
     <use transform="translate(511.230469 0.015625)" xlink:href="#DejaVuSans-61"/>
     <use transform="translate(572.509766 0.015625)" xlink:href="#DejaVuSans-6e"/>
     <use transform="translate(635.888672 0.015625)" xlink:href="#DejaVuSans-64"/>
     <use transform="translate(699.365234 0.015625)" xlink:href="#DejaVuSans-73"/>
     <use transform="translate(783.935222 0.015625)" xlink:href="#DejaVuSans-6f"/>
     <use transform="translate(845.116863 0.015625)" xlink:href="#DejaVuSans-66"/>
     <use transform="translate(912.792319 0.015625)" xlink:href="#DejaVuSans-41"/>
     <use transform="translate(981.200522 0.015625)" xlink:href="#DejaVuSans-4d"/>
     <use transform="translate(1067.479819 0.015625)" xlink:href="#DejaVuSans-5a"/>
     <use transform="translate(1135.985679 0.015625)" xlink:href="#DejaVuSans-4e"/>
    </g>
   </g>
   <g id="legend_1">
    <g id="patch_7">
     <path d="M 332.204375 108.1845 
L 407.72 108.1845 
Q 409.72 108.1845 409.72 106.1845 
L 409.72 48.472 
Q 409.72 46.472 407.72 46.472 
L 332.204375 46.472 
Q 330.204375 46.472 330.204375 48.472 
L 330.204375 106.1845 
Q 330.204375 108.1845 332.204375 108.1845 
z
" style="fill:#ffffff;opacity:0.8;stroke:#cccccc;stroke-linejoin:miter;"/>
    </g>
    <g id="line2d_18">
     <path d="M 334.204375 54.570438 
L 354.204375 54.570438 
" style="fill:none;stroke:#0000ff;stroke-linecap:square;stroke-width:1.5;"/>
    </g>
    <g id="line2d_19"/>
    <g id="text_17">
     <!-- Current -->
     <defs>
      <path d="M 64.40625 67.28125 
L 64.40625 56.890625 
Q 59.421875 61.53125 53.78125 63.8125 
Q 48.140625 66.109375 41.796875 66.109375 
Q 29.296875 66.109375 22.65625 58.46875 
Q 16.015625 50.828125 16.015625 36.375 
Q 16.015625 21.96875 22.65625 14.328125 
Q 29.296875 6.6875 41.796875 6.6875 
Q 48.140625 6.6875 53.78125 8.984375 
Q 59.421875 11.28125 64.40625 15.921875 
L 64.40625 5.609375 
Q 59.234375 2.09375 53.4375 0.328125 
Q 47.65625 -1.421875 41.21875 -1.421875 
Q 24.65625 -1.421875 15.125 8.703125 
Q 5.609375 18.84375 5.609375 36.375 
Q 5.609375 53.953125 15.125 64.078125 
Q 24.65625 74.21875 41.21875 74.21875 
Q 47.75 74.21875 53.53125 72.484375 
Q 59.328125 70.75 64.40625 67.28125 
z
" id="DejaVuSans-43"/>
      <path d="M 8.5 21.578125 
L 8.5 54.6875 
L 17.484375 54.6875 
L 17.484375 21.921875 
Q 17.484375 14.15625 20.5 10.265625 
Q 23.53125 6.390625 29.59375 6.390625 
Q 36.859375 6.390625 41.078125 11.03125 
Q 45.3125 15.671875 45.3125 23.6875 
L 45.3125 54.6875 
L 54.296875 54.6875 
L 54.296875 0 
L 45.3125 0 
L 45.3125 8.40625 
Q 42.046875 3.421875 37.71875 1 
Q 33.40625 -1.421875 27.6875 -1.421875 
Q 18.265625 -1.421875 13.375 4.4375 
Q 8.5 10.296875 8.5 21.578125 
z
M 31.109375 56 
z
" id="DejaVuSans-75"/>
     </defs>
     <g transform="translate(362.204375 58.070438)scale(0.1 -0.1)">
      <use xlink:href="#DejaVuSans-43"/>
      <use x="69.824219" xlink:href="#DejaVuSans-75"/>
      <use x="133.203125" xlink:href="#DejaVuSans-72"/>
      <use x="174.300781" xlink:href="#DejaVuSans-72"/>
      <use x="215.382812" xlink:href="#DejaVuSans-65"/>
      <use x="276.90625" xlink:href="#DejaVuSans-6e"/>
      <use x="340.285156" xlink:href="#DejaVuSans-74"/>
     </g>
    </g>
    <g id="line2d_20">
     <path d="M 334.204375 69.248563 
L 354.204375 69.248563 
" style="fill:none;stroke:#ffd700;stroke-linecap:square;stroke-width:1.5;"/>
    </g>
    <g id="line2d_21"/>
    <g id="text_18">
     <!-- Mean -->
     <g transform="translate(362.204375 72.748563)scale(0.1 -0.1)">
      <use xlink:href="#DejaVuSans-4d"/>
      <use x="86.279297" xlink:href="#DejaVuSans-65"/>
      <use x="147.802734" xlink:href="#DejaVuSans-61"/>
      <use x="209.082031" xlink:href="#DejaVuSans-6e"/>
     </g>
    </g>
    <g id="line2d_22">
     <path d="M 334.204375 83.926688 
L 354.204375 83.926688 
" style="fill:none;stroke:#ff0000;stroke-linecap:square;stroke-width:1.5;"/>
    </g>
    <g id="line2d_23"/>
    <g id="text_19">
     <!-- Boll high -->
     <defs>
      <path d="M 54.890625 33.015625 
L 54.890625 0 
L 45.90625 0 
L 45.90625 32.71875 
Q 45.90625 40.484375 42.875 44.328125 
Q 39.84375 48.1875 33.796875 48.1875 
Q 26.515625 48.1875 22.3125 43.546875 
Q 18.109375 38.921875 18.109375 30.90625 
L 18.109375 0 
L 9.078125 0 
L 9.078125 75.984375 
L 18.109375 75.984375 
L 18.109375 46.1875 
Q 21.34375 51.125 25.703125 53.5625 
Q 30.078125 56 35.796875 56 
Q 45.21875 56 50.046875 50.171875 
Q 54.890625 44.34375 54.890625 33.015625 
z
" id="DejaVuSans-68"/>
     </defs>
     <g transform="translate(362.204375 87.426688)scale(0.1 -0.1)">
      <use xlink:href="#DejaVuSans-42"/>
      <use x="68.603516" xlink:href="#DejaVuSans-6f"/>
      <use x="129.785156" xlink:href="#DejaVuSans-6c"/>
      <use x="157.568359" xlink:href="#DejaVuSans-6c"/>
      <use x="185.351562" xlink:href="#DejaVuSans-20"/>
      <use x="217.138672" xlink:href="#DejaVuSans-68"/>
      <use x="280.517578" xlink:href="#DejaVuSans-69"/>
      <use x="308.300781" xlink:href="#DejaVuSans-67"/>
      <use x="371.777344" xlink:href="#DejaVuSans-68"/>
     </g>
    </g>
    <g id="line2d_24">
     <path d="M 334.204375 98.604813 
L 354.204375 98.604813 
" style="fill:none;stroke:#008000;stroke-linecap:square;stroke-width:1.5;"/>
    </g>
    <g id="line2d_25"/>
    <g id="text_20">
     <!-- Boll low -->
     <defs>
      <path d="M 4.203125 54.6875 
L 13.1875 54.6875 
L 24.421875 12.015625 
L 35.59375 54.6875 
L 46.1875 54.6875 
L 57.421875 12.015625 
L 68.609375 54.6875 
L 77.59375 54.6875 
L 63.28125 0 
L 52.6875 0 
L 40.921875 44.828125 
L 29.109375 0 
L 18.5 0 
z
" id="DejaVuSans-77"/>
     </defs>
     <g transform="translate(362.204375 102.104813)scale(0.1 -0.1)">
      <use xlink:href="#DejaVuSans-42"/>
      <use x="68.603516" xlink:href="#DejaVuSans-6f"/>
      <use x="129.785156" xlink:href="#DejaVuSans-6c"/>
      <use x="157.568359" xlink:href="#DejaVuSans-6c"/>
      <use x="185.351562" xlink:href="#DejaVuSans-20"/>
      <use x="217.138672" xlink:href="#DejaVuSans-6c"/>
      <use x="244.921875" xlink:href="#DejaVuSans-6f"/>
      <use x="306.103516" xlink:href="#DejaVuSans-77"/>
     </g>
    </g>
   </g>
  </g>
 </g>
 <defs>
  <clipPath id="p6b314b0a2f">
   <rect height="266.112" width="357.12" x="57.6" y="41.472"/>
  </clipPath>
 </defs>
</svg>
